<svg width="391" height="372" viewBox="0 0 391 372" fill="none" xmlns="http://www.w3.org/2000/svg">
<path d="M211.611 143.807C211.899 142.214 212.558 139.345 213.198 136.722C213.839 134.094 214.462 131.709 214.672 131.103C214.826 130.657 215.144 129.673 215.37 128.881C216.639 124.427 219.698 117.69 222.207 113.745C226.089 107.642 230.097 103.288 236.642 98.1016C243.727 92.486 249.976 86.0016 254.519 79.5586C255.357 78.3692 256.658 76.0917 257.857 73.8086C259.057 71.5255 260.152 69.2416 260.58 68.0381C260.896 67.1497 261.248 66.1616 261.408 65.8096C261.486 65.6383 261.609 65.2675 261.75 64.8057C261.891 64.345 262.05 63.7975 262.2 63.2754C262.503 62.2229 262.887 60.9303 263.059 60.4141C263.425 59.3138 263.678 57.7591 264.581 51.3359C264.956 48.6678 265.136 47.3854 265.144 46.0869C265.152 44.788 264.989 43.4719 264.677 40.7373C263.522 30.6123 260.092 22.79 254.365 17.1943C253.056 15.9152 252.128 15.0701 251.167 14.3652C250.206 13.6606 249.212 13.0946 247.771 12.374C243.099 10.0382 238.281 8.56743 233.013 7.93066C231.317 7.7257 228.691 7.68162 226.096 7.7666C223.5 7.8516 220.937 8.06561 219.367 8.375C211.72 9.88195 205.155 12.695 199.791 18.083C198.966 18.9116 198.195 19.6199 197.585 20.1211C197.28 20.3716 197.015 20.5718 196.804 20.709C196.698 20.7775 196.604 20.8306 196.525 20.8672C196.448 20.903 196.379 20.9258 196.324 20.9258H196.252C196.197 20.9258 196.128 20.9031 196.051 20.8672C195.972 20.8306 195.878 20.7775 195.772 20.709C195.561 20.5718 195.296 20.3716 194.991 20.1211C194.382 19.6199 193.61 18.9116 192.785 18.083C187.42 12.6933 180.853 9.24663 173.209 7.74023C171.639 7.43084 169.077 7.21683 166.48 7.13184C163.885 7.04685 161.26 7.09091 159.563 7.2959C154.296 7.93265 149.478 9.40261 144.807 11.7383C143.366 12.4588 142.371 13.025 141.41 13.7295C140.449 14.4343 139.52 15.2794 138.211 16.5586C132.485 22.1543 129.055 29.9774 127.9 40.1025C127.589 42.8369 127.425 44.1523 127.433 45.4512C127.441 46.7498 127.62 48.0326 127.995 50.7012C128.898 57.1241 129.152 58.6781 129.519 59.7783C129.691 60.2946 130.074 61.5872 130.377 62.6396C130.527 63.1616 130.685 63.7093 130.826 64.1699C130.968 64.632 131.09 65.0036 131.168 65.1748C131.328 65.527 131.68 66.5141 131.996 67.4023C132.424 68.6057 133.519 70.8897 134.719 73.1729C135.918 75.4559 137.219 77.7334 138.058 78.9229C142.6 85.366 148.849 91.8511 155.935 97.4668C162.479 102.653 166.487 107.006 170.369 113.109C172.879 117.055 175.937 123.791 177.206 128.245C177.432 129.037 177.75 130.021 177.904 130.467C178.114 131.072 178.737 133.458 179.378 136.086C180.018 138.71 180.679 141.582 180.966 143.174L196.168 165.483L211.611 143.807Z" fill="white" stroke="white" stroke-width="0.1"/>
<path d="M192.769 165.818C192.052 164.944 191.236 163.707 190.649 162.743C190.465 162.441 190.674 162.508 190.552 162.296C190.312 161.881 189.999 161.561 189.77 161.146C189.695 161.008 189.974 161.043 189.891 160.901C189.435 160.124 188.893 159.472 188.392 158.714C185.924 154.983 183.385 151.399 180.781 147.701C179.923 146.481 178.99 144.917 178.017 143.721C177.903 143.581 177.832 143.768 177.8 143.748C177.313 143.442 177.691 143.384 177.519 143.075C176.839 141.849 175.934 140.595 175.09 139.555C174.731 139.113 174.806 139.768 174.614 139.197C174.601 139.157 174.827 139.169 174.749 139.032C174.573 138.722 174.15 138.2 173.999 137.971C173.708 137.528 173.654 137.459 173.359 137.055C172.958 136.502 172.545 135.796 172.078 135.228C171.979 135.107 171.96 135.379 171.788 135.196C171.616 135.012 171.236 134.471 171.137 134.266C171.039 134.062 171.206 134.056 171.208 134.006C171.229 133.586 170.479 133.19 170.414 133.116C169.227 131.762 168.483 130.398 167.484 129.042C166.725 128.013 165.861 126.952 165.148 125.967C164.298 124.792 163.643 123.748 162.796 122.624C162.707 122.505 162.653 122.762 162.543 122.617C161.383 121.077 160.267 119.52 159.234 117.897C159.13 117.734 159.412 117.833 159.317 117.665C158.73 116.633 157.885 114.94 156.89 114.807C156.44 114.147 155.89 113.349 155.583 112.689C155.384 112.263 155.793 112.517 155.396 112.107C155.307 112.015 155.28 112.241 155.155 112.095C154.632 111.481 154.151 110.743 153.615 110.149C153.505 110.028 153.42 110.147 153.373 110.124C152.983 109.934 152.87 109.218 152.807 109.091C152.319 108.125 151.8 107.541 151.215 106.739C151.079 106.552 151.094 106.881 150.958 106.705C150.256 105.795 149.563 104.825 148.96 103.871C148.826 103.658 149.086 103.752 149.028 103.646C148.772 103.179 148.47 103.257 148.221 102.812C148.168 102.718 148.308 102.689 148.308 102.665C148.309 102.285 147.895 102.262 147.843 102.203C147.178 101.462 147.069 100.755 146.462 100.012C146.39 99.9236 146.412 100.229 146.215 99.9734C144.907 98.2728 143.599 96.4186 142.441 94.6339C142.26 94.3565 142.496 94.4752 142.495 94.4498C142.479 94.0409 142.102 94.0475 142.028 93.9677C141.458 93.3334 141.192 92.5432 140.559 92.2942C138.525 89.3248 136.244 86.5585 134.376 83.5031C134.352 83.4644 134.515 83.4449 134.467 83.3683C133.883 82.4446 133.83 82.7447 133.186 82.3245C133.024 82.2184 132.957 81.5806 132.947 81.5273C132.911 81.332 133.19 81.3557 133.168 81.2977C132.981 80.8222 132.472 81.2991 132.077 80.7631C132.066 80.7457 132.22 80.7404 132.197 80.6879C132.126 80.5246 131.983 80.4161 131.917 80.2535C131.768 79.8804 131.953 79.5707 131.444 79.2088C131.379 79.1633 131.135 79.4871 130.797 78.9975C130.663 78.8022 130.036 77.9618 129.881 77.7103C129.727 77.4591 129.946 77.5476 129.938 77.5276C129.6 76.7937 129.833 76.9947 129.791 76.5323C129.748 76.0709 129.353 76.5005 129.206 76.4086C129.058 76.3163 128.822 75.7699 128.774 75.6277C128.727 75.4855 128.895 75.5819 128.841 75.4644C128.479 74.6873 128.394 75.3363 128.158 75.1674C127.599 74.7692 127.635 74.11 127.313 73.6057C127.225 73.4692 127.227 73.6319 127.135 73.5214C126.769 73.0831 126.669 72.7303 126.188 72.2794C126.11 72.2058 125.599 71.9318 125.544 71.5503C125.536 71.496 125.7 71.5446 125.574 71.3356C125.386 71.0232 125.015 70.4842 124.756 70.1909C124.565 69.9743 124.626 70.3398 124.452 70.0171C124.375 69.8737 124.632 70.0554 124.48 69.7909C124.33 69.5276 123.869 68.9114 123.692 68.6779C123.515 68.4449 123.509 68.6487 123.488 68.6348C123.364 68.5488 122.982 68.1334 122.953 68.0934C121.456 66.0892 120.253 64.1103 118.751 62.1925C118.633 62.0419 118.606 62.2203 118.587 62.1981C118.155 61.7035 118.735 61.9165 118.554 61.4816C118.385 61.6886 118.263 61.4438 117.966 61.09C117.823 60.9197 117.815 61.0762 117.794 61.066C117.477 60.8911 117.498 60.5902 117.495 60.5191C117.483 60.2564 117.203 60.1685 117.193 59.9909C117.183 59.814 117.502 60.0027 117.237 59.6487C117.09 59.6035 117.093 60.0096 116.863 59.7627C115.994 58.8308 114.74 56.8181 114.15 55.9885C113.561 55.16 113.353 54.9058 113.027 54.4106C112.438 53.5164 112.534 53.9331 112.077 53.445C111.62 52.9551 112.147 52.9676 112.162 52.8373C112.178 52.7085 112.043 52.6809 112.013 52.5577C111.983 52.4349 112.182 52.6013 112.033 52.3702C111.884 52.1393 111.31 51.6316 111.178 51.6086C110.898 51.5605 110.933 51.9551 110.56 51.3281C110.539 51.292 110.707 51.3365 110.62 51.2015C109.933 50.1313 109.154 49.0683 108.458 48.0065C108.362 47.8605 108.549 47.9156 108.495 47.8298C107.926 46.9365 107.992 47.3579 107.472 47.0226C107.783 46.9536 107.736 46.5902 107.259 45.9456C106.973 45.558 106.921 45.6998 106.664 45.5022C106.587 45.443 106.453 45.1175 106.369 45.103C106.092 45.0542 106.11 45.4412 105.688 44.7248C105.67 44.6932 105.823 44.7234 105.754 44.6188C105.306 43.9426 105.087 43.9839 104.549 43.2933C104.126 42.752 103.499 41.6978 103.05 41.0576C103.312 40.884 102.815 40.334 102.464 40.221C102.17 39.8078 101.835 39.3743 101.568 38.9624C101.475 38.8208 101.613 38.8567 101.608 38.8339C101.536 38.4816 101.238 38.4274 101.167 38.3441C100.399 37.4363 99.9488 36.5672 99.1554 35.7458C99.1272 35.7167 98.9206 35.7887 98.8635 35.4543C98.8603 35.4323 99.1588 35.6765 98.8483 35.2438C98.5379 34.8108 98.0296 33.9375 97.5134 33.3996C97.3884 33.2694 96.9862 33.0041 96.8746 32.6346C96.86 32.5852 96.9385 32.5929 96.9231 32.5173C96.8721 32.274 96.6334 32.2974 96.6159 31.98C96.5984 31.6625 96.3733 31.1421 95.8328 30.6144C95.8158 30.5974 95.5811 30.5514 95.4437 30.3614C95.2243 30.058 94.9347 29.611 94.7011 29.2975C94.5893 29.1474 94.5811 29.3026 94.5603 29.2775C93.7674 28.2986 93.3054 27.526 92.5329 26.4203C92.3913 26.2176 91.8636 25.7245 91.662 25.2784C91.4399 24.789 92.1388 24.9433 91.3274 24.0413C90.9997 23.6779 90.1611 23.5317 89.8837 22.6478C88.8129 21.3282 87.9994 19.9769 86.9016 18.6715C86.8523 18.6128 86.5821 18.5117 86.4768 18.3656C86.3207 18.1487 86.2922 17.9874 86.1825 17.8312C85.7242 17.1758 85.2391 16.6247 84.7883 15.9994C84.6169 15.7621 84.7373 15.8003 84.5328 15.5174C84.3282 15.2348 84.1121 15.1055 83.8683 14.6978C83.6844 14.3897 83.6295 13.9862 83.3649 13.5925C83.1992 13.6927 83.0085 13.429 82.6235 12.9943C82.5494 12.9108 82.5669 13.0463 82.5291 13.0088C82.3743 12.8571 82.3007 12.6651 82.1499 12.5238C82.1133 12.4894 82.0597 12.5262 82.0269 12.5002C81.746 12.2806 81.5267 11.7382 81.489 11.6452C81.3443 11.2884 81.1734 11.1983 81.0336 10.9461C80.8939 10.6943 81.1856 11.0094 81.0053 10.7279C80.6314 10.1448 80.0939 9.43786 79.6781 8.87234C79.5118 8.64695 79.5583 8.85031 79.533 8.8192C79.1714 8.36637 78.8934 7.84337 78.5698 7.6835C78.6732 7.1072 78.3287 7.42744 77.9049 6.71122C77.8717 6.65471 77.9826 6.46928 78.1555 6.65275C78.3285 6.83617 78.5044 7.17825 78.7486 7.42962C78.8062 7.4893 79.2398 7.75451 79.2876 7.79909C79.6612 8.14903 79.4596 8.38716 79.462 8.41855C79.4971 8.76855 80.0057 9.10832 80.108 9.22129C80.5747 9.73877 80.8917 10.2374 81.2761 10.6746C81.5273 10.9608 81.7139 10.8688 81.8872 11.1111C82.464 11.9165 82.4374 12.3665 83.1976 12.9649C83.3605 13.0933 83.425 12.7979 83.7101 13.4793C83.7281 13.522 83.9137 14.0471 84.1819 14.2312C84.2156 14.2543 84.2689 14.2133 84.304 14.2507C84.5379 14.5024 84.6311 14.7168 84.8746 14.9993C85.1181 15.2818 85.4173 15.6168 85.6532 15.9706C85.7955 16.1837 85.8894 16.5228 85.9374 16.6397C86.0716 16.9708 86.4129 17.1796 86.4527 17.4168C86.4928 17.6561 86.1059 17.4169 86.3861 17.9146C86.5434 17.8242 86.7208 17.7528 86.8868 17.6718C87.6258 18.67 88.3099 19.6841 89.0623 20.6775C89.1558 20.8005 89.1412 20.6147 89.2435 20.745C89.6751 21.2949 89.9832 21.8262 90.4403 22.3894C90.7944 22.8252 91.2496 23.2533 91.6236 23.7062C91.6634 24.1226 92.2439 24.7756 92.6067 25.2937C92.7338 25.4752 92.6776 25.4985 92.7564 25.6361C93.0547 26.1546 93.0454 25.815 93.1678 25.927C93.6929 26.4077 93.3709 26.7208 93.872 27.375C93.8983 27.4099 94.4101 27.6948 94.4663 27.7446C94.8246 28.0604 94.4454 27.8563 94.6061 28.101C94.8995 28.5477 95.0747 28.8794 95.5065 29.3386C95.6326 29.4724 96.0172 29.7325 96.1349 30.0865C96.1504 30.133 96.07 30.1605 96.0886 30.1934C96.4315 30.785 96.6471 30.6476 96.9496 30.9067C97.2523 31.1657 97.4696 31.7512 97.5013 31.8796C97.5858 32.2144 97.3092 31.7174 97.2884 31.7113C97.0426 31.6406 97.3256 31.9753 97.5149 32.251C97.3404 32.4406 97.6314 32.8067 97.7119 32.5363C97.7203 32.5062 97.5457 32.3117 97.5149 32.251C97.8899 32.3384 98.2244 32.7299 98.3757 33.324C98.4462 33.6022 98.1931 33.4772 98.7126 34.0965C98.9483 34.3775 99.0062 34.1587 99.2383 34.3888C99.7691 34.9143 100.21 35.7818 100.686 36.3762C100.859 36.5918 100.777 36.3175 100.898 36.4628C101.22 36.848 101.424 37.2462 101.756 37.6265C101.787 37.6608 101.804 37.5095 101.898 37.634C102.619 38.5762 103.184 39.4433 103.924 40.4362C104.282 40.9159 104.97 41.7372 105.332 42.2405C105.96 43.1123 106.624 44.2655 107.204 44.9778C107.582 45.4425 107.592 45.2715 107.807 45.4319C108.221 45.7408 108.536 46.5983 108.573 46.7174C108.574 46.7211 108.245 46.3242 108.363 46.5783C108.363 46.7774 108.569 46.7131 108.573 46.7174C108.598 46.7951 109.194 47.6345 109.333 47.7853C109.409 47.8673 109.458 47.7541 109.496 47.798C110.397 48.8427 111.246 49.9286 112.042 51.0758C112.055 51.0968 111.935 51.1398 111.966 51.1882C112.407 51.8676 112.837 52.1926 113.309 52.6723C113.78 53.152 114.074 53.5921 114.138 54.0351C114.461 54.4214 114.817 55.0553 115.019 55.4222C115.221 55.7891 115.452 55.6896 115.478 55.7159C116.286 56.5349 116.568 57.1452 117.258 58.1044C117.586 58.5606 118.283 59.431 118.67 59.9013C118.976 60.2727 119.102 60.5397 119.398 60.8716C119.438 60.9165 119.492 60.8008 119.507 60.8129C119.912 61.1277 119.547 61.1023 119.569 61.2134C119.646 61.6165 119.706 61.8571 120.153 62.3136C120.256 62.4191 120.833 62.5205 121.012 62.7191C121.244 62.978 121.05 62.9596 121.295 63.2286C121.316 63.2517 121.384 63.1934 121.515 63.3746C122.125 64.2148 122.762 65.1513 123.416 66.0087C123.506 66.126 123.508 65.8891 123.639 66.0571C124.253 66.8456 124.907 67.7238 125.436 68.5428C125.566 68.7447 125.393 68.6857 125.4 68.7454C125.443 69.1108 125.93 69.3132 125.979 69.3698C127.154 70.7172 127.775 71.9546 128.96 73.337C129.024 73.4122 129.72 73.8438 129.719 74.2669C129.72 74.2955 129.711 74.7197 130.033 74.8509C130.053 74.859 130.036 74.6115 130.244 74.9117C130.452 75.212 130.878 75.628 131.06 76.1182C131.118 76.2732 131.131 76.7309 131.585 76.985C131.614 77.0013 132.438 77.302 132.33 77.7072C132.312 77.7734 132.004 77.9462 132.488 78.2922C132.581 78.358 132.526 78.1545 132.736 78.3532C133.059 78.6573 133.33 79.176 133.779 79.5113C133.857 79.5696 134.29 79.7447 134.335 80.1087C134.342 80.1657 134.19 80.1602 134.281 80.303C134.711 80.9825 135.28 81.6067 135.703 82.3075C135.852 82.5556 135.608 82.553 135.747 82.8246C135.885 83.0964 136.208 83.6116 136.468 83.8105C136.728 84.0093 136.772 83.549 137.076 83.9112C138.395 85.4853 139.468 87.2184 140.674 88.8725C140.853 89.1177 140.794 88.8482 141.065 89.2046C142.063 90.5188 143.864 92.7291 144.523 94.0228C145.05 95.0598 144.061 93.9958 144.521 94.7461C144.742 95.1083 145.326 95.2454 145.397 95.3197C146.095 96.044 146.374 96.7005 146.955 97.3873C147.075 97.529 147.093 97.2896 147.193 97.4112C147.539 97.8257 147.823 98.3206 148.142 98.7247C148.286 98.9057 148.358 98.7993 148.479 98.9748C148.767 99.3939 148.997 99.7839 149.202 100.249C149.221 100.291 148.916 100.138 149.137 100.443C149.495 100.935 149.857 101.608 150.372 102.099C150.525 102.244 150.758 102.082 150.869 102.556C150.892 102.655 150.547 102.762 151.096 103.003C151.187 103.045 152.033 103.507 152.084 104.003C152.098 104.134 152.046 104.532 152.231 104.706C152.257 104.729 152.299 104.529 152.435 104.685C152.914 105.24 153.36 105.862 153.85 106.433C153.981 106.585 153.93 106.251 154.122 106.481C154.648 107.113 155.231 107.956 155.673 108.628C155.835 108.876 155.604 108.793 155.606 108.819C155.622 109.238 156.003 109.21 156.088 109.291C156.608 109.795 156.813 110.321 157.241 110.824C157.359 110.963 157.406 110.767 157.439 110.788C157.773 111.008 157.381 110.95 157.499 111.158C157.829 111.742 158.285 112.329 158.705 112.855C158.86 113.048 158.839 112.718 158.976 112.893C159.791 113.924 160.598 115.025 161.287 116.111C161.416 116.315 161.211 116.278 161.215 116.338C161.241 116.75 161.795 116.972 161.889 117.048C162.317 117.393 162.34 117.633 162.641 117.994C164.114 119.758 165.748 122.072 167.006 123.835C168.646 126.131 169.845 127.967 171.49 130.098C171.594 130.233 171.652 129.975 171.744 130.091C172.927 131.583 173.989 133.128 175.182 134.618C175.28 134.74 175.301 134.444 175.463 134.636C175.796 135.03 176.181 135.558 176.444 136.011C176.572 136.232 176.232 136.06 176.364 136.281C176.671 136.794 177.043 137.313 177.436 137.783C177.603 137.983 177.53 137.549 177.735 137.818C179.136 139.648 180.527 141.435 181.711 143.456C181.792 143.595 181.538 143.957 181.806 144.181C181.916 144.132 182.025 144.049 182.133 143.983C184.202 146.625 186.078 149.368 188.079 152.073C188.163 152.187 188.202 151.854 188.366 152.074C189.318 153.346 190.299 154.541 191.088 155.98C191.167 156.122 190.785 156.302 191.121 156.645C191.18 156.705 191.654 157.246 191.837 157.34C191.863 157.352 191.94 157.132 192.083 157.314C192.912 158.368 193.721 159.518 194.428 160.66C194.541 160.844 194.235 160.785 194.315 160.917C194.88 161.857 195.72 162.712 196.191 163.661C196.506 164.297 196.057 164.307 195.989 164.819C195.98 164.892 196.231 165.243 196.076 165.386C195.686 165.746 195.097 165.922 194.696 166.326C194.629 166.393 194.881 166.64 194.797 166.702C194.797 166.703 194.797 166.703 194.797 166.703C194.772 166.721 194.718 166.723 194.619 166.7C194.589 166.692 194.262 166.412 194.121 166.387C194.024 166.37 193.929 166.602 193.772 166.535C193.615 166.469 193.663 166.233 193.436 166.097C193.209 165.963 193.078 166.193 192.769 165.818ZM115.928 57.0744C116.062 57.4533 116.445 57.2396 116.113 56.9686C116.096 56.9558 115.92 57.0551 115.928 57.0744ZM88.1077 19.8252C88.2916 20.3141 88.6678 20.4632 88.5457 20.1126C88.4231 19.7625 88.0513 19.6765 88.1077 19.8252ZM84.9154 15.7072C85.1774 16.2438 85.5926 16.0513 85.1438 15.6012C85.1178 15.575 84.9001 15.6759 84.9154 15.7072ZM194.88 163.5C194.875 163.51 195.053 163.765 195.065 163.765C195.354 163.758 194.998 163.248 194.88 163.5ZM81.7463 11.6219C81.8088 11.8037 82.1772 12.1875 82.0997 11.9615C82.0371 11.7798 81.6681 11.3957 81.7463 11.6219ZM127.492 73.453C127.489 73.4621 127.617 73.6449 127.647 73.6172C127.743 73.5273 127.528 73.3003 127.492 73.453ZM76.5068 4.56962C77.2691 5.62031 77.467 6.45315 76.658 5.2933C76.5113 5.08341 77.071 5.67387 76.9015 5.394C76.5905 4.8825 76.1886 4.68761 75.9161 4.13233C75.8666 4.0319 76.4637 4.50935 76.5086 4.5712C76.508 4.57065 76.5074 4.57013 76.5068 4.56962ZM115.64 57.5628C115.64 57.5724 115.819 57.8234 115.828 57.826C116.039 57.8778 115.677 57.3723 115.64 57.5628ZM134.979 84.0838C134.977 84.1061 135.392 84.6896 135.416 84.7005C135.852 84.842 135.014 83.6628 134.979 84.0838ZM103.05 41.0428C102.751 40.8456 102.501 40.5298 102.465 40.2223C102.657 40.4962 102.856 40.7677 103.05 41.0428Z" fill="white"/>
<path d="M178.674 144.398C177.249 143.633 174.723 142.119 172.426 140.7C170.126 139.278 168.05 137.949 167.538 137.562C167.162 137.278 166.324 136.671 165.641 136.211C161.797 133.628 156.335 128.638 153.358 125.032C148.753 119.454 145.851 114.296 142.941 106.47C139.79 97.9955 135.554 90.0488 130.83 83.7375C129.958 82.5724 128.194 80.6314 126.393 78.7852C124.592 76.939 122.759 75.1918 121.746 74.4126C120.999 73.8375 120.168 73.1973 119.883 72.9364C119.744 72.8094 119.429 72.5782 119.034 72.3011C118.639 72.0247 118.167 71.7043 117.717 71.4C116.81 70.7867 115.699 70.0227 115.261 69.6995C114.328 69.0107 112.928 68.2896 107.098 65.4462C104.676 64.2651 103.512 63.6981 102.28 63.2892C101.047 62.8802 99.7447 62.6284 97.0476 62.08C87.0614 60.0495 78.5619 60.8948 71.4705 64.6117C69.8495 65.4614 68.7589 66.083 67.7916 66.7792C66.8246 67.4751 65.9788 68.2462 64.8482 69.3941C61.1832 73.1152 58.2954 77.2433 56.0619 82.0565C55.3429 83.6063 54.4897 86.0894 53.7684 88.5843C53.0471 91.0795 52.4588 93.5827 52.2678 95.1715C51.338 102.91 51.9845 110.023 55.4513 116.789C55.9845 117.83 56.4196 118.783 56.708 119.517C56.8521 119.885 56.9606 120.199 57.0257 120.442C57.0582 120.564 57.0796 120.669 57.0901 120.756C57.1004 120.84 57.1007 120.913 57.0837 120.965L57.0613 121.034C57.0443 121.086 57.0014 121.145 56.9434 121.207C56.8843 121.271 56.8048 121.343 56.707 121.423C56.5112 121.582 56.2388 121.772 55.9064 121.984C55.2414 122.409 54.3293 122.924 53.2864 123.452C46.5024 126.89 41.1953 132.07 37.4005 138.874C36.621 140.272 35.6257 142.643 34.7426 145.086C33.8596 147.528 33.0903 150.038 32.7612 151.715C31.739 156.921 31.6482 161.958 32.426 167.122C32.666 168.715 32.897 169.836 33.2702 170.968C33.6436 172.1 34.1602 173.244 34.9722 174.885C38.5245 182.06 44.905 187.739 54.1777 191.966C56.6819 193.108 57.8822 193.67 59.12 194.064C60.3576 194.457 61.633 194.683 64.2869 195.151C70.6744 196.277 72.2308 196.516 73.3905 196.507C73.9347 196.503 75.2825 196.538 76.3771 196.575C76.92 196.593 77.4896 196.612 77.9713 196.621C78.4544 196.629 78.8458 196.627 79.0326 196.606C79.417 196.563 80.4646 196.533 81.407 196.507C82.6838 196.471 85.1943 196.136 87.7364 195.701C90.2784 195.265 92.8464 194.732 94.2368 194.302C101.768 191.973 109.867 188.034 117.397 183.03C124.352 178.409 129.731 175.942 136.735 174.136C141.262 172.969 148.615 172.141 153.243 172.311C154.066 172.341 155.1 172.342 155.571 172.333C156.212 172.321 158.673 172.466 161.371 172.668C164.065 172.87 167 173.13 168.602 173.348L194.518 165.784L178.674 144.398Z" fill="white" stroke="white" stroke-width="0.1"/>
<path d="M193.786 169.121C192.733 169.532 191.305 169.926 190.206 170.186C189.862 170.268 189.99 170.089 189.751 170.141C189.283 170.241 188.882 170.439 188.416 170.529C188.261 170.558 188.381 170.303 188.22 170.338C187.341 170.532 186.553 170.846 185.677 171.088C181.366 172.282 177.173 173.589 172.851 174.923C171.426 175.362 169.65 175.766 168.212 176.322C168.044 176.387 168.199 176.513 168.171 176.536C167.729 176.905 167.791 176.528 167.444 176.596C166.068 176.864 164.596 177.337 163.346 177.818C162.814 178.023 163.46 178.154 162.857 178.16C162.816 178.161 162.897 177.949 162.743 177.981C162.394 178.052 161.766 178.293 161.501 178.366C160.991 178.507 160.908 178.536 160.433 178.692C159.783 178.903 158.983 179.077 158.3 179.345C158.154 179.403 158.407 179.505 158.179 179.612C157.951 179.719 157.319 179.912 157.094 179.943C156.869 179.974 156.916 179.813 156.868 179.796C156.475 179.645 155.867 180.236 155.776 180.275C154.122 180.986 152.595 181.272 150.997 181.803C149.784 182.207 148.507 182.701 147.35 183.075C145.97 183.52 144.775 183.82 143.444 184.278C143.303 184.326 143.531 184.457 143.359 184.517C141.536 185.144 139.711 185.724 137.847 186.206C137.66 186.254 137.842 186.016 137.652 186.055C136.49 186.294 134.619 186.575 134.184 187.479C133.418 187.704 132.489 187.98 131.766 188.069C131.3 188.126 131.667 187.816 131.155 188.066C131.04 188.123 131.247 188.219 131.069 188.292C130.324 188.599 129.473 188.829 128.742 189.155C128.594 189.222 128.68 189.34 128.644 189.378C128.342 189.69 127.627 189.576 127.486 189.597C126.417 189.762 125.701 190.075 124.757 190.384C124.538 190.455 124.855 190.543 124.646 190.618C123.563 191.005 122.427 191.364 121.333 191.642C121.089 191.704 121.259 191.486 121.14 191.508C120.617 191.607 120.598 191.918 120.097 192.018C119.992 192.04 120.008 191.897 119.984 191.889C119.624 191.772 119.474 192.158 119.402 192.189C118.492 192.592 117.785 192.478 116.892 192.825C116.785 192.867 117.082 192.94 116.778 193.048C114.757 193.767 112.589 194.438 110.534 194.988C110.214 195.074 110.4 194.887 110.375 194.879C109.981 194.769 109.871 195.13 109.773 195.174C108.993 195.521 108.159 195.53 107.727 196.055C104.274 197.072 100.939 198.386 97.4556 199.218C97.4114 199.229 97.4432 199.068 97.3553 199.091C96.2965 199.36 96.5654 199.504 95.9668 199.986C95.8159 200.107 95.1886 199.974 95.1348 199.967C94.938 199.941 95.0466 199.683 94.9846 199.686C94.4746 199.717 94.771 200.348 94.1392 200.558C94.1191 200.564 94.1617 200.416 94.1047 200.421C93.9274 200.438 93.7801 200.541 93.6051 200.553C93.2041 200.58 92.9668 200.308 92.4654 200.68C92.4021 200.728 92.6345 201.06 92.0646 201.23C91.8374 201.297 90.8442 201.634 90.5573 201.703C90.2708 201.772 90.4227 201.591 90.4011 201.593C89.5987 201.687 89.8617 201.528 89.4091 201.425C88.957 201.323 89.2434 201.832 89.1105 201.944C88.9772 202.055 88.3844 202.111 88.2344 202.113C88.0846 202.114 88.2283 201.984 88.0998 201.999C87.2489 202.103 87.8401 202.384 87.6062 202.557C87.0549 202.965 86.4391 202.727 85.8598 202.878C85.703 202.919 85.8583 202.967 85.7247 203.021C85.1948 203.233 84.8284 203.219 84.2511 203.537C84.1567 203.589 83.7382 203.99 83.3584 203.925C83.3045 203.915 83.4013 203.774 83.1636 203.83C82.8085 203.912 82.1813 204.098 81.8221 204.254C81.557 204.369 81.9235 204.424 81.5631 204.489C81.4028 204.518 81.6548 204.33 81.3565 204.392C81.0597 204.454 80.3311 204.703 80.0543 204.799C79.7781 204.895 79.97 204.964 79.9503 204.979C79.8301 205.071 79.3171 205.306 79.27 205.321C76.9015 206.125 74.6475 206.658 72.3594 207.494C72.1798 207.559 72.3411 207.64 72.3142 207.651C71.7104 207.909 72.0919 207.424 71.6225 207.461C71.7673 207.686 71.4966 207.727 71.0684 207.899C70.8622 207.983 71.0085 208.039 70.9926 208.055C70.7282 208.303 70.4485 208.19 70.3799 208.171C70.1264 208.101 69.9563 208.34 69.7844 208.295C69.6129 208.25 69.8909 208.005 69.4724 208.147C69.384 208.273 69.7712 208.396 69.4651 208.539C68.3103 209.077 66.0087 209.647 65.0373 209.952C64.0676 210.256 63.7615 210.375 63.1898 210.532C62.1572 210.817 62.5831 210.854 61.9778 211.138C61.3706 211.421 61.5453 210.924 61.426 210.869C61.3084 210.814 61.2404 210.934 61.114 210.925C60.9879 210.915 61.2077 210.777 60.9421 210.847C60.6765 210.917 60.0162 211.306 59.9535 211.425C59.8212 211.677 60.2072 211.765 59.4959 211.926C59.455 211.935 59.5489 211.79 59.3939 211.83C58.1638 212.153 56.9119 212.566 55.6871 212.899C55.5187 212.945 55.629 212.784 55.5305 212.809C54.5052 213.074 54.9261 213.142 54.4466 213.533C54.4772 213.215 54.117 213.148 53.3566 213.402C52.8995 213.555 53.0183 213.648 52.751 213.831C52.6708 213.887 52.32 213.913 52.2802 213.989C52.1483 214.236 52.5217 214.34 51.7101 214.519C51.6744 214.527 51.7505 214.39 51.6296 214.424C50.848 214.641 50.8198 214.862 49.9965 215.161C49.3513 215.395 48.1547 215.666 47.4073 215.895C47.3231 215.592 46.6463 215.895 46.4305 216.193C45.9466 216.346 45.4308 216.53 44.9565 216.657C44.7933 216.701 44.87 216.581 44.8468 216.579C44.4893 216.539 44.3459 216.805 44.2446 216.847C43.144 217.297 42.1782 217.457 41.1518 217.957C41.1155 217.975 41.1201 218.194 40.7844 218.145C40.7625 218.141 41.087 217.933 40.5795 218.094C40.0718 218.256 39.0842 218.469 38.413 218.794C38.2506 218.873 37.874 219.173 37.4881 219.165C37.4366 219.164 37.4682 219.092 37.3916 219.083C37.1444 219.056 37.0928 219.29 36.7856 219.209C36.4783 219.128 35.9138 219.181 35.2448 219.532C35.2234 219.543 35.1072 219.752 34.884 219.824C34.5276 219.939 34.013 220.076 33.6427 220.201C33.4654 220.261 33.6104 220.317 33.5802 220.329C32.4041 220.78 31.5266 220.981 30.2363 221.374C29.9998 221.446 29.3678 221.796 28.8812 221.85C28.3471 221.91 28.7098 221.293 27.6013 221.785C27.1543 221.985 26.7561 222.737 25.8298 222.728C24.2439 223.339 22.7074 223.695 21.1266 224.335C21.0555 224.364 20.8758 224.59 20.7044 224.645C20.4499 224.726 20.2876 224.704 20.1052 224.76C19.3402 224.993 18.6662 225.284 17.9322 225.519C17.6536 225.609 17.7271 225.506 17.3949 225.614C17.0629 225.721 16.8731 225.886 16.4101 225.992C16.0602 226.072 15.6595 225.999 15.2033 226.129C15.2474 226.318 14.9377 226.418 14.4053 226.65C14.3029 226.694 14.4372 226.72 14.3899 226.744C14.1978 226.844 13.9924 226.855 13.8115 226.955C13.7674 226.979 13.7858 227.041 13.751 227.064C13.4553 227.264 12.8718 227.305 12.7716 227.312C12.3876 227.339 12.249 227.474 11.9659 227.529C11.6834 227.584 12.0731 227.404 11.7498 227.488C11.0796 227.664 10.2412 227.956 9.57485 228.177C9.30911 228.266 9.51689 228.284 9.47947 228.299C8.93706 228.503 8.35377 228.605 8.10172 228.864C7.58558 228.587 7.7837 229.014 6.97157 229.196C6.90755 229.21 6.76546 229.047 6.99339 228.939C7.22128 228.832 7.60099 228.77 7.91552 228.615C7.99007 228.579 8.37628 228.249 8.43346 228.217C8.88172 227.97 9.0459 228.235 9.0765 228.242C9.42022 228.317 9.90052 227.939 10.0396 227.876C10.6759 227.592 11.2481 227.445 11.7827 227.214C12.1325 227.064 12.1026 226.858 12.3867 226.768C13.3309 226.468 13.7506 226.633 14.5547 226.095C14.7272 225.979 14.4662 225.827 15.2023 225.766C15.2484 225.762 15.8052 225.748 16.0632 225.55C16.0956 225.525 16.0731 225.461 16.1195 225.44C16.4311 225.295 16.6638 225.273 17.0078 225.128C17.3517 224.984 17.7627 224.803 18.1721 224.688C18.4187 224.619 18.7703 224.634 18.8963 224.624C19.2526 224.599 19.5567 224.339 19.7946 224.375C20.0345 224.41 19.6875 224.704 20.2475 224.592C20.2101 224.414 20.197 224.223 20.1713 224.041C21.349 223.646 22.5248 223.309 23.7021 222.9C23.848 222.849 23.6668 222.806 23.8223 222.749C24.4786 222.508 25.0791 222.379 25.756 222.119C26.2799 221.917 26.8278 221.616 27.3741 221.4C27.7824 221.491 28.5828 221.141 29.1877 220.956C29.3996 220.891 29.4043 220.952 29.5596 220.919C30.1448 220.796 29.819 220.7 29.9634 220.618C30.5828 220.267 30.781 220.67 31.5581 220.396C31.5994 220.381 32.0286 219.983 32.0933 219.945C32.5043 219.701 32.193 219.999 32.4754 219.922C32.9909 219.781 33.3605 219.717 33.9307 219.448C34.0969 219.369 34.4631 219.084 34.8361 219.081C34.8852 219.081 34.8865 219.166 34.9235 219.158C35.5922 219.015 35.528 218.768 35.8679 218.56C36.2078 218.352 36.8318 218.326 36.9638 218.336C37.3083 218.359 36.7501 218.468 36.7379 218.486C36.5947 218.698 37.0005 218.533 37.3212 218.438C37.4475 218.662 37.8857 218.499 37.6534 218.339C37.6273 218.321 37.3884 218.427 37.3212 218.438C37.5202 218.108 37.9958 217.911 38.6076 217.951C38.8941 217.97 38.697 218.172 39.4464 217.869C39.7866 217.732 39.5963 217.609 39.8869 217.459C40.5507 217.117 41.5119 216.966 42.2243 216.697C42.4828 216.599 42.1967 216.592 42.3723 216.522C42.838 216.335 43.2799 216.263 43.7442 216.065C43.7862 216.047 43.6476 215.984 43.7953 215.932C44.9141 215.538 45.9132 215.269 47.0863 214.872C47.653 214.68 48.6469 214.279 49.2374 214.09C50.2606 213.762 51.5624 213.488 52.4191 213.156C52.978 212.94 52.8185 212.877 53.0373 212.723C53.4591 212.424 54.3718 212.39 54.4966 212.391C54.5005 212.391 54.0212 212.582 54.2995 212.548C54.4888 212.61 54.4913 212.394 54.4966 212.391C54.5783 212.391 55.5607 212.084 55.7473 211.998C55.8487 211.951 55.756 211.87 55.8095 211.848C57.0815 211.314 58.3768 210.841 59.7138 210.439C59.7377 210.433 59.7415 210.561 59.7973 210.546C60.5794 210.337 61.0215 210.028 61.6235 209.728C62.2255 209.427 62.7347 209.284 63.1759 209.36C63.6432 209.172 64.3559 209.029 64.7673 208.951C65.1786 208.872 65.1556 208.621 65.1886 208.605C66.217 208.09 66.8847 208.01 68.0102 207.65C68.5453 207.479 69.5885 207.085 70.1553 206.863C70.6032 206.686 70.8961 206.649 71.3032 206.47C71.3583 206.446 71.2651 206.358 71.281 206.348C71.7057 206.06 71.5688 206.399 71.6811 206.413C72.0884 206.464 72.3355 206.482 72.9079 206.198C73.04 206.133 73.3149 205.614 73.5591 205.506C73.877 205.365 73.7994 205.544 74.1311 205.394C74.1595 205.381 74.1251 205.299 74.3379 205.23C75.3253 204.91 76.4129 204.593 77.4306 204.236C77.5698 204.187 77.3452 204.112 77.5454 204.039C78.485 203.699 79.5223 203.348 80.4648 203.098C80.6969 203.037 80.5875 203.183 80.6464 203.195C81.0072 203.267 81.3503 202.866 81.4193 202.837C83.0637 202.136 84.4323 201.928 86.1132 201.228C86.2047 201.19 86.8302 200.662 87.2323 200.793C87.2596 200.802 87.6605 200.941 87.8847 200.675C87.8986 200.659 87.6578 200.599 88.0077 200.493C88.3577 200.388 88.8849 200.112 89.4073 200.09C89.5726 200.083 90.012 200.212 90.3938 199.859C90.4186 199.836 90.9591 199.145 91.3111 199.373C91.3684 199.411 91.4376 199.757 91.9162 199.404C92.0074 199.336 91.7969 199.325 92.0509 199.187C92.4398 198.974 93.0169 198.876 93.4745 198.553C93.5542 198.497 93.8544 198.139 94.2146 198.208C94.271 198.219 94.2187 198.362 94.3825 198.32C95.1619 198.121 95.9313 197.773 96.7283 197.587C97.0106 197.522 96.9326 197.753 97.2338 197.705C97.535 197.658 98.1247 197.51 98.3943 197.324C98.6639 197.138 98.2396 196.954 98.6778 196.777C100.583 196.009 102.562 195.524 104.508 194.888C104.797 194.793 104.522 194.766 104.945 194.619C106.503 194.076 109.162 193.046 110.596 192.819C111.745 192.638 110.428 193.25 111.283 193.045C111.696 192.946 112.007 192.433 112.1 192.388C113.004 191.948 113.714 191.886 114.547 191.546C114.719 191.476 114.497 191.385 114.644 191.326C115.145 191.125 115.703 191.009 116.186 190.83C116.403 190.749 116.324 190.647 116.528 190.587C117.016 190.442 117.458 190.345 117.963 190.293C118.009 190.288 117.769 190.531 118.127 190.415C118.706 190.226 119.458 190.09 120.084 189.752C120.269 189.651 120.187 189.38 120.672 189.42C120.774 189.429 120.769 189.79 121.168 189.343C121.236 189.269 121.936 188.607 122.424 188.712C122.553 188.739 122.915 188.912 123.138 188.789C123.168 188.772 122.99 188.67 123.182 188.589C123.857 188.305 124.586 188.073 125.28 187.784C125.466 187.706 125.132 187.651 125.41 187.54C126.174 187.235 127.156 186.94 127.932 186.728C128.218 186.65 128.067 186.844 128.092 186.851C128.496 186.965 128.587 186.594 128.69 186.538C129.331 186.2 129.894 186.167 130.505 185.915C130.673 185.846 130.502 185.741 130.532 185.716C130.844 185.466 130.668 185.821 130.903 185.773C131.56 185.639 132.258 185.387 132.889 185.15C133.121 185.063 132.8 184.981 133.008 184.905C134.241 184.448 135.538 184.021 136.783 183.701C137.018 183.641 136.919 183.825 136.977 183.839C137.377 183.942 137.76 183.484 137.861 183.418C138.321 183.118 138.556 183.17 138.993 182.996C141.125 182.14 143.831 181.3 145.896 180.649C148.587 179.799 150.704 179.226 153.238 178.32C153.399 178.262 153.172 178.127 153.31 178.075C155.095 177.412 156.893 176.88 158.678 176.205C158.825 176.15 158.549 176.038 158.783 175.944C159.26 175.748 159.881 175.546 160.393 175.436C160.643 175.382 160.374 175.652 160.625 175.595C161.208 175.461 161.817 175.268 162.385 175.04C162.627 174.942 162.192 174.878 162.511 174.766C164.684 173.999 166.813 173.228 169.101 172.727C169.258 172.692 169.525 173.046 169.82 172.86C169.807 172.741 169.762 172.611 169.733 172.489C172.885 171.337 176.074 170.4 179.265 169.333C179.399 169.288 179.094 169.149 179.354 169.06C180.859 168.548 182.298 167.985 183.91 167.679C184.07 167.648 184.123 168.066 184.553 167.853C184.628 167.816 185.289 167.532 185.435 167.387C185.455 167.366 185.269 167.224 185.486 167.144C186.745 166.682 188.088 166.268 189.393 165.949C189.604 165.898 189.452 166.17 189.603 166.136C190.671 165.889 191.744 165.354 192.792 165.199C193.494 165.096 193.365 165.526 193.831 165.749C193.897 165.78 194.309 165.65 194.397 165.842C194.619 166.324 194.604 166.938 194.865 167.445C194.908 167.529 195.221 167.366 195.254 167.465C195.254 167.465 195.254 167.465 195.254 167.465C195.264 167.494 195.249 167.546 195.196 167.634C195.18 167.66 194.812 167.884 194.745 168.01C194.699 168.097 194.89 168.259 194.778 168.388C194.667 168.517 194.457 168.398 194.258 168.572C194.06 168.746 194.238 168.943 193.786 169.121ZM66.6194 208.597C67.0212 208.587 66.9366 208.156 66.5761 208.388C66.5588 208.4 66.5988 208.598 66.6194 208.597ZM22.5965 223.545C23.1183 223.521 23.3764 223.209 23.0053 223.217C22.6344 223.225 22.4376 223.552 22.5965 223.545ZM17.6937 225.308C18.2849 225.225 18.2301 224.771 17.6634 225.058C17.6304 225.075 17.6591 225.313 17.6937 225.308ZM192.234 166.396C192.242 166.404 192.54 166.314 192.543 166.302C192.625 166.025 192.031 166.206 192.234 166.396ZM12.8289 227.06C13.0211 227.057 13.5 226.825 13.2611 226.829C13.069 226.832 12.5897 227.064 12.8289 227.06ZM85.7699 202.66C85.7779 202.665 85.9912 202.6 85.974 202.563C85.9181 202.444 85.6361 202.578 85.7699 202.66ZM4.50275 229.864C5.73756 229.463 6.59079 229.533 5.23772 229.944C4.99277 230.018 5.72731 229.668 5.40875 229.743C4.82617 229.881 4.51662 230.203 3.90431 230.29C3.79352 230.306 4.4321 229.886 4.50478 229.862C4.50408 229.863 4.5034 229.863 4.50275 229.864ZM66.9951 209.022C67.0042 209.025 67.2983 208.932 67.3035 208.924C67.4178 208.74 66.8255 208.927 66.9951 209.022ZM98.194 198.825C98.2148 198.833 98.8979 198.619 98.9158 198.599C99.1851 198.228 97.8044 198.661 98.194 198.825ZM47.393 215.891C47.113 216.114 46.7355 216.254 46.432 216.193C46.7518 216.095 47.0716 215.99 47.393 215.891Z" fill="white"/>
<path d="M169.059 175.906C167.89 177.025 165.67 178.959 163.611 180.705C161.547 182.454 159.642 184.018 159.116 184.385C158.729 184.655 157.893 185.264 157.245 185.772C153.601 188.629 147.166 192.282 142.817 193.998C136.089 196.654 130.287 197.82 121.944 198.17C112.911 198.548 104.044 200.121 96.5822 202.664C95.2047 203.133 92.8136 204.211 90.5013 205.353C88.189 206.495 85.9606 207.699 84.9068 208.421C84.1289 208.954 83.2633 209.546 82.9269 209.737C82.7633 209.83 82.4461 210.058 82.0603 210.348C81.6755 210.638 81.2251 210.988 80.7966 211.322C79.9329 211.995 78.863 212.816 78.4203 213.132C77.4769 213.807 76.3584 214.916 71.8526 219.582C69.981 221.52 69.082 222.452 68.3123 223.497C67.5423 224.544 66.9005 225.704 65.5455 228.1C60.5285 236.97 58.7058 245.315 60.0495 253.207C60.3566 255.012 60.6108 256.241 60.974 257.376C61.3371 258.511 61.8091 259.553 62.5514 260.983C64.9579 265.619 67.9915 269.641 71.879 273.253C73.1307 274.415 75.2286 275.994 77.3785 277.451C79.5287 278.908 81.7276 280.241 83.1796 280.914C90.252 284.189 97.2169 285.773 104.723 284.566C105.878 284.381 106.918 284.261 107.706 284.214C108.1 284.191 108.432 284.184 108.684 284.198C108.809 284.205 108.917 284.217 109.002 284.233C109.085 284.25 109.154 284.272 109.199 284.304L109.257 284.347C109.302 284.379 109.344 284.438 109.386 284.512C109.428 284.588 109.473 284.686 109.518 284.804C109.608 285.039 109.705 285.357 109.804 285.739C110.003 286.503 110.211 287.529 110.391 288.684C111.564 296.198 114.851 302.847 120.149 308.558C121.238 309.732 123.185 311.411 125.235 313.006C127.285 314.6 129.435 316.107 130.928 316.939C135.563 319.52 140.325 321.162 145.477 322.018C147.067 322.283 148.204 322.409 149.395 322.404C150.587 322.399 151.836 322.261 153.647 321.996C161.568 320.834 168.941 316.521 175.827 309.008C177.686 306.98 178.592 306.012 179.349 304.956C180.106 303.901 180.715 302.758 181.98 300.378C185.025 294.651 185.733 293.245 186.083 292.139C186.247 291.621 186.697 290.349 187.07 289.32C187.255 288.809 187.45 288.273 187.606 287.818C187.763 287.361 187.883 286.988 187.92 286.804C187.998 286.425 188.293 285.419 188.56 284.515C188.921 283.29 189.377 280.798 189.749 278.246C190.121 275.694 190.407 273.087 190.427 271.632C190.54 263.749 189.296 254.83 186.865 246.122C184.619 238.079 183.935 232.202 184.381 224.982C184.67 220.316 186.155 213.067 187.747 208.718C188.03 207.945 188.35 206.962 188.488 206.511C188.674 205.897 189.572 203.602 190.598 201.099C191.623 198.599 192.776 195.888 193.48 194.431L194.294 167.447L169.059 175.906Z" fill="white" stroke="white" stroke-width="0.1"/>
<path d="M197.241 169.174C197.307 170.302 197.24 171.782 197.148 172.907C197.12 173.26 196.989 173.083 196.964 173.326C196.915 173.803 196.979 174.245 196.921 174.716C196.901 174.872 196.695 174.68 196.679 174.843C196.591 175.739 196.646 176.586 196.606 177.493C196.41 181.962 196.357 186.354 196.29 190.877C196.267 192.368 196.102 194.182 196.187 195.721C196.197 195.901 196.364 195.792 196.378 195.826C196.592 196.361 196.253 196.186 196.21 196.536C196.04 197.928 196.035 199.474 196.106 200.812C196.137 201.381 196.461 200.807 196.28 201.382C196.268 201.422 196.092 201.279 196.075 201.435C196.035 201.789 196.07 202.461 196.058 202.735C196.033 203.264 196.036 203.352 196.037 203.852C196.036 204.536 195.956 205.35 195.999 206.083C196.009 206.239 196.184 206.03 196.216 206.28C196.247 206.529 196.235 207.191 196.195 207.414C196.155 207.637 196.017 207.544 195.985 207.583C195.721 207.91 196.095 208.672 196.104 208.77C196.269 210.563 196.069 212.103 196.08 213.788C196.089 215.066 196.165 216.433 196.162 217.649C196.159 219.099 196.076 220.328 196.1 221.736C196.102 221.885 196.297 221.709 196.3 221.89C196.334 223.818 196.322 225.733 196.204 227.654C196.192 227.847 196.022 227.6 196 227.793C195.868 228.972 195.557 230.838 196.283 231.531C196.26 232.329 196.236 233.298 196.096 234.013C196.007 234.474 195.825 234.029 195.905 234.594C195.923 234.721 196.078 234.554 196.093 234.745C196.155 235.549 196.111 236.429 196.195 237.225C196.213 237.387 196.351 237.341 196.377 237.387C196.58 237.771 196.25 238.416 196.227 238.556C196.054 239.624 196.13 240.401 196.132 241.394C196.133 241.625 196.314 241.351 196.321 241.572C196.354 242.722 196.344 243.914 196.271 245.04C196.254 245.291 196.099 245.062 196.084 245.182C196.016 245.71 196.306 245.825 196.247 246.331C196.235 246.438 196.104 246.379 196.089 246.399C195.866 246.706 196.187 246.967 196.195 247.046C196.296 248.036 195.97 248.673 196.024 249.63C196.03 249.744 196.192 249.484 196.201 249.806C196.259 251.951 196.228 254.22 196.116 256.345C196.099 256.675 195.978 256.441 195.963 256.462C195.737 256.802 196.046 257.019 196.058 257.126C196.147 257.975 195.897 258.77 196.263 259.344C196.164 262.942 196.382 266.52 196.098 270.09C196.094 270.135 195.951 270.055 195.945 270.146C195.874 271.236 196.094 271.025 196.368 271.743C196.437 271.924 196.116 272.48 196.093 272.529C196.007 272.708 195.796 272.525 195.779 272.585C195.651 273.079 196.343 272.992 196.347 273.658C196.346 273.679 196.219 273.593 196.206 273.649C196.168 273.823 196.22 273.994 196.177 274.164C196.079 274.554 195.747 274.696 195.946 275.288C195.971 275.363 196.359 275.244 196.345 275.839C196.339 276.076 196.352 277.124 196.329 277.418C196.306 277.712 196.181 277.512 196.176 277.533C196.018 278.325 195.948 278.026 195.71 278.425C195.473 278.823 196.046 278.708 196.111 278.869C196.176 279.03 196.046 279.611 196.001 279.754C195.956 279.897 195.876 279.72 195.851 279.847C195.687 280.688 196.137 280.213 196.229 280.489C196.447 281.139 196.03 281.651 195.995 282.249C195.985 282.411 196.079 282.278 196.089 282.422C196.128 282.991 196.001 283.335 196.125 283.983C196.145 284.089 196.397 284.611 196.218 284.952C196.192 285 196.088 284.864 196.067 285.107C196.035 285.471 196.018 286.125 196.056 286.514C196.083 286.802 196.249 286.47 196.199 286.833C196.177 286.995 196.077 286.697 196.044 287C196.011 287.301 196.022 288.071 196.028 288.364C196.034 288.656 196.158 288.495 196.167 288.519C196.217 288.661 196.282 289.222 196.282 289.271C196.315 291.772 196.125 294.081 196.213 296.515C196.22 296.706 196.347 296.578 196.349 296.607C196.407 297.261 196.064 296.748 195.955 297.206C196.212 297.138 196.168 297.408 196.2 297.868C196.216 298.09 196.314 297.968 196.325 297.989C196.478 298.316 196.285 298.548 196.245 298.607C196.1 298.826 196.275 299.062 196.179 299.212C196.083 299.361 195.936 299.021 195.942 299.463C196.035 299.586 196.271 299.255 196.312 299.591C196.468 300.855 196.299 303.22 196.289 304.239C196.278 305.255 196.297 305.583 196.269 306.175C196.22 307.245 196.388 306.851 196.47 307.515C196.553 308.18 196.134 307.86 196.045 307.957C195.956 308.051 196.049 308.153 196.001 308.27C195.953 308.387 195.89 308.136 195.874 308.41C195.859 308.684 196.025 309.432 196.118 309.529C196.317 309.732 196.52 309.393 196.453 310.119C196.449 310.16 196.34 310.026 196.33 310.186C196.257 311.456 196.263 312.774 196.202 314.042C196.193 314.216 196.074 314.061 196.068 314.163C196.003 315.22 196.198 314.841 196.421 315.417C196.129 315.29 195.953 315.612 195.96 316.414C195.964 316.896 196.09 316.811 196.181 317.122C196.209 317.216 196.126 317.557 196.185 317.619C196.38 317.821 196.594 317.497 196.514 318.325C196.51 318.361 196.404 318.247 196.398 318.372C196.363 319.182 196.564 319.277 196.594 320.153C196.617 320.839 196.505 322.06 196.492 322.842C196.178 322.828 196.257 323.566 196.474 323.863C196.47 324.371 196.486 324.918 196.46 325.409C196.451 325.577 196.361 325.467 196.352 325.489C196.203 325.816 196.412 326.035 196.421 326.144C196.508 327.33 196.362 328.298 196.521 329.429C196.527 329.469 196.736 329.532 196.586 329.836C196.575 329.856 196.477 329.483 196.474 330.015C196.471 330.548 196.369 331.553 196.47 332.292C196.495 332.471 196.664 332.922 196.537 333.286C196.52 333.335 196.461 333.283 196.429 333.353C196.328 333.58 196.534 333.701 196.362 333.968C196.189 334.235 196.066 334.788 196.193 335.533C196.197 335.557 196.359 335.732 196.359 335.967C196.358 336.341 196.33 336.873 196.334 337.264C196.337 337.451 196.434 337.33 196.437 337.363C196.503 338.621 196.422 339.517 196.397 340.866C196.393 341.113 196.53 341.822 196.431 342.302C196.323 342.828 195.848 342.292 195.974 343.499C196.026 343.986 196.618 344.597 196.323 345.475C196.414 347.172 196.278 348.743 196.398 350.445C196.404 350.521 196.563 350.762 196.562 350.942C196.561 351.209 196.489 351.356 196.486 351.547C196.472 352.347 196.54 353.078 196.538 353.849C196.537 354.141 196.462 354.04 196.461 354.389C196.46 354.738 196.559 354.969 196.517 355.442C196.484 355.8 196.292 356.159 196.274 356.633C196.467 356.649 196.467 356.974 196.523 357.552C196.533 357.663 196.599 357.544 196.607 357.596C196.644 357.81 196.59 358.008 196.629 358.211C196.639 358.261 196.704 358.262 196.715 358.303C196.813 358.646 196.672 359.213 196.647 359.311C196.555 359.684 196.64 359.858 196.605 360.144C196.57 360.43 196.519 360.003 196.5 360.337C196.459 361.029 196.479 361.916 196.483 362.618C196.485 362.898 196.567 362.707 196.569 362.747C196.595 363.325 196.513 363.912 196.68 364.232C196.258 364.637 196.725 364.58 196.647 365.409C196.641 365.474 196.442 365.559 196.41 365.309C196.378 365.059 196.436 364.679 196.387 364.332C196.375 364.25 196.18 363.78 196.168 363.716C196.071 363.213 196.374 363.139 196.391 363.112C196.568 362.809 196.356 362.235 196.34 362.083C196.267 361.39 196.303 360.801 196.249 360.221C196.214 359.842 196.009 359.807 196.011 359.509C196.018 358.518 196.304 358.17 196.041 357.239C195.985 357.039 195.759 357.24 195.929 356.521C195.939 356.476 196.098 355.942 195.989 355.636C195.975 355.597 195.908 355.599 195.902 355.548C195.86 355.207 195.911 354.979 195.88 354.607C195.849 354.235 195.804 353.788 195.821 353.364C195.831 353.108 195.954 352.778 195.984 352.655C196.07 352.308 195.917 351.939 196.024 351.724C196.132 351.507 196.305 351.927 196.371 351.36C196.19 351.341 196.005 351.294 195.823 351.262C195.812 350.02 195.854 348.798 195.829 347.552C195.826 347.397 195.729 347.556 195.723 347.391C195.697 346.692 195.76 346.081 195.721 345.357C195.691 344.796 195.574 344.182 195.538 343.596C195.75 343.236 195.664 342.366 195.675 341.734C195.679 341.512 195.738 341.527 195.756 341.369C195.819 340.774 195.627 341.054 195.594 340.892C195.451 340.194 195.896 340.13 195.875 339.306C195.874 339.263 195.628 338.731 195.612 338.658C195.507 338.192 195.694 338.58 195.708 338.288C195.733 337.754 195.786 337.382 195.707 336.757C195.684 336.575 195.525 336.138 195.638 335.783C195.653 335.736 195.734 335.761 195.738 335.723C195.809 335.043 195.554 335.028 195.461 334.64C195.368 334.253 195.537 333.651 195.587 333.529C195.715 333.208 195.647 333.773 195.66 333.79C195.817 333.992 195.785 333.555 195.794 333.22C196.047 333.17 196.026 332.702 195.802 332.874C195.778 332.893 195.805 333.153 195.794 333.22C195.542 332.929 195.501 332.416 195.728 331.846C195.835 331.58 195.966 331.83 195.91 331.023C195.884 330.657 195.709 330.8 195.656 330.478C195.536 329.741 195.689 328.78 195.653 328.019C195.64 327.743 195.545 328.013 195.533 327.824C195.499 327.324 195.567 326.881 195.522 326.378C195.518 326.333 195.415 326.445 195.412 326.289C195.382 325.103 195.435 324.07 195.42 322.831C195.413 322.233 195.338 321.164 195.341 320.544C195.346 319.469 195.487 318.146 195.436 317.229C195.403 316.631 195.294 316.763 195.215 316.507C195.061 316.014 195.311 315.135 195.351 315.017C195.352 315.013 195.386 315.528 195.439 315.253C195.556 315.092 195.352 315.023 195.351 315.017C195.376 314.939 195.388 313.91 195.364 313.706C195.35 313.595 195.245 313.658 195.24 313.601C195.125 312.226 195.076 310.848 195.106 309.452C195.108 309.427 195.231 309.463 195.233 309.405C195.277 308.597 195.12 308.081 195.02 307.416C194.92 306.751 194.942 306.222 195.15 305.826C195.116 305.323 195.2 304.601 195.253 304.186C195.305 303.77 195.059 303.715 195.054 303.678C194.882 302.541 195.012 301.881 195.018 300.7C195.021 300.138 194.968 299.024 194.932 298.416C194.902 297.936 194.957 297.646 194.913 297.203C194.907 297.143 194.795 297.205 194.79 297.187C194.647 296.694 194.928 296.929 194.976 296.826C195.15 296.455 195.243 296.225 195.15 295.593C195.129 295.447 194.721 295.026 194.693 294.76C194.658 294.414 194.804 294.543 194.764 294.181C194.76 294.15 194.671 294.158 194.671 293.934C194.672 292.896 194.707 291.764 194.682 290.685C194.678 290.538 194.537 290.728 194.53 290.515C194.497 289.517 194.484 288.422 194.537 287.448C194.551 287.208 194.656 287.358 194.685 287.305C194.865 286.984 194.59 286.534 194.584 286.46C194.425 284.679 194.65 283.313 194.505 281.498C194.496 281.4 194.187 280.641 194.436 280.3C194.453 280.276 194.709 279.938 194.526 279.643C194.514 279.624 194.383 279.835 194.391 279.469C194.399 279.104 194.299 278.517 194.44 278.014C194.484 277.854 194.743 277.476 194.525 277.004C194.51 276.973 194.021 276.246 194.346 275.982C194.4 275.939 194.75 275.98 194.563 275.416C194.526 275.308 194.451 275.505 194.398 275.22C194.315 274.785 194.401 274.206 194.235 273.671C194.206 273.577 193.959 273.181 194.136 272.86C194.164 272.81 194.283 272.904 194.294 272.735C194.345 271.932 194.252 271.093 194.322 270.278C194.347 269.989 194.543 270.135 194.59 269.833C194.638 269.532 194.68 268.926 194.586 268.612C194.492 268.298 194.186 268.645 194.154 268.173C194.012 266.124 194.163 264.092 194.158 262.044C194.158 261.74 194.047 261.993 194.038 261.546C194.003 259.896 193.845 257.049 194.072 255.615C194.256 254.467 194.43 255.909 194.499 255.031C194.533 254.608 194.141 254.154 194.127 254.052C193.988 253.056 194.149 252.361 194.082 251.464C194.069 251.279 193.913 251.462 193.903 251.304C193.867 250.766 193.929 250.199 193.908 249.684C193.898 249.453 193.777 249.497 193.783 249.284C193.795 248.775 193.839 248.325 193.946 247.828C193.956 247.783 194.113 248.086 194.113 247.71C194.112 247.1 194.215 246.343 194.087 245.644C194.048 245.436 193.765 245.431 193.954 244.982C193.993 244.888 194.335 245.004 194.033 244.486C193.984 244.399 193.571 243.528 193.821 243.097C193.887 242.983 194.163 242.691 194.116 242.442C194.108 242.408 193.956 242.545 193.938 242.338C193.877 241.609 193.881 240.843 193.821 240.093C193.805 239.893 193.649 240.193 193.629 239.895C193.575 239.074 193.599 238.049 193.637 237.245C193.651 236.949 193.789 237.153 193.803 237.131C194.036 236.782 193.711 236.581 193.69 236.466C193.566 235.752 193.709 235.206 193.658 234.548C193.645 234.366 193.492 234.496 193.477 234.46C193.336 234.086 193.619 234.363 193.646 234.125C193.722 233.459 193.698 232.717 193.668 232.043C193.656 231.796 193.479 232.076 193.471 231.854C193.418 230.541 193.412 229.175 193.493 227.892C193.508 227.651 193.653 227.801 193.684 227.751C193.906 227.402 193.588 226.896 193.557 226.78C193.413 226.249 193.536 226.042 193.505 225.572C193.35 223.28 193.387 220.447 193.406 218.282C193.429 215.46 193.538 213.269 193.46 210.579C193.455 210.409 193.256 210.583 193.25 210.435C193.17 208.533 193.219 206.659 193.129 204.752C193.122 204.596 192.931 204.823 192.913 204.572C192.875 204.057 192.874 203.405 192.928 202.883C192.954 202.629 193.128 202.968 193.151 202.712C193.204 202.116 193.208 201.478 193.167 200.867C193.149 200.606 192.953 201.001 192.946 200.663C192.888 198.358 192.812 196.096 193.043 193.764C193.058 193.605 193.477 193.461 193.392 193.122C193.274 193.097 193.137 193.1 193.011 193.09C192.89 189.736 192.984 186.414 192.956 183.05C192.955 182.908 192.728 183.155 192.724 182.881C192.702 181.291 192.61 179.749 192.817 178.121C192.838 177.959 193.252 178.038 193.182 177.563C193.17 177.48 193.104 176.764 193.011 176.58C192.997 176.555 192.806 176.687 192.796 176.457C192.746 175.116 192.768 173.711 192.867 172.372C192.883 172.155 193.096 172.383 193.109 172.229C193.205 171.137 193.027 169.952 193.204 168.907C193.323 168.208 193.692 168.463 194.048 168.089C194.098 168.036 194.102 167.603 194.311 167.579C194.839 167.517 195.418 167.721 195.98 167.63C196.074 167.615 196.015 167.267 196.12 167.266C196.12 167.266 196.12 167.266 196.12 167.266C196.151 167.266 196.196 167.295 196.263 167.373C196.282 167.397 196.381 167.815 196.481 167.918C196.55 167.989 196.763 167.858 196.851 168.004C196.939 168.15 196.761 168.313 196.865 168.555C196.97 168.797 197.211 168.688 197.241 169.174ZM195.489 302.315C195.603 301.93 195.167 301.877 195.276 302.292C195.282 302.312 195.483 302.335 195.489 302.315ZM196.101 348.802C196.239 348.299 196.023 347.957 195.915 348.312C195.809 348.668 196.059 348.956 196.101 348.802ZM196.263 354.01C196.366 353.422 195.917 353.334 196.016 353.962C196.022 353.998 196.257 354.045 196.263 354.01ZM194.17 169.808C194.18 169.802 194.186 169.492 194.176 169.484C193.938 169.321 193.927 169.943 194.17 169.808ZM196.426 359.178C196.482 358.994 196.409 358.467 196.339 358.696C196.283 358.88 196.356 359.407 196.426 359.178ZM195.76 282.267C195.767 282.261 195.772 282.038 195.731 282.043C195.601 282.06 195.641 282.369 195.76 282.267ZM196.519 367.963C196.52 366.665 196.849 365.875 196.822 367.289C196.818 367.545 196.712 366.738 196.684 367.064C196.635 367.661 196.846 368.055 196.74 368.664C196.721 368.775 196.519 368.037 196.519 367.961C196.519 367.962 196.519 367.963 196.519 367.963ZM196.008 302.089C196.014 302.081 196.017 301.773 196.011 301.766C195.871 301.6 195.866 302.221 196.008 302.089ZM195.952 269.266C195.966 269.249 195.974 268.533 195.96 268.51C195.69 268.139 195.676 269.586 195.952 269.266ZM196.484 322.854C196.61 323.19 196.627 323.592 196.475 323.862C196.48 323.527 196.479 323.191 196.484 322.854Z" fill="white"/>
<path d="M196.053 194.787C196.757 196.244 197.91 198.954 198.934 201.452C199.96 203.955 200.858 206.25 201.045 206.864C201.182 207.315 201.503 208.298 201.786 209.072C203.377 213.421 204.862 220.669 205.151 225.336C205.598 232.555 204.914 238.433 202.668 246.476C200.237 255.184 198.993 264.103 199.105 271.985C199.125 273.44 199.412 276.048 199.783 278.6C200.155 281.152 200.612 283.643 200.972 284.868C201.239 285.773 201.535 286.779 201.612 287.158C201.65 287.342 201.769 287.714 201.926 288.171C202.083 288.627 202.276 289.163 202.461 289.674C202.835 290.703 203.284 291.974 203.449 292.493C203.799 293.599 204.508 295.005 207.553 300.732C208.818 303.111 209.426 304.254 210.183 305.31C210.94 306.365 211.846 307.334 213.705 309.363C220.591 316.876 227.964 321.188 235.886 322.349C237.696 322.614 238.944 322.752 240.136 322.758C241.327 322.763 242.465 322.636 244.054 322.372C249.206 321.516 253.969 319.874 258.605 317.293C260.098 316.462 262.248 314.954 264.298 313.36C266.348 311.765 268.295 310.086 269.383 308.913C274.684 303.199 278.342 297.064 279.515 289.552C279.695 288.397 279.903 287.37 280.101 286.606C280.201 286.225 280.298 285.907 280.388 285.672C280.433 285.554 280.478 285.456 280.52 285.38C280.562 285.306 280.604 285.247 280.648 285.214L280.707 285.172C280.752 285.14 280.821 285.117 280.904 285.101C280.989 285.084 281.096 285.072 281.222 285.065C281.474 285.052 281.806 285.058 282.2 285.082C282.988 285.129 284.028 285.249 285.183 285.434C292.691 286.641 300.03 285.569 307.099 282.295C308.551 281.622 310.75 280.289 312.9 278.832C315.05 277.375 317.148 275.797 318.4 274.634C322.287 271.022 325.321 267.001 327.727 262.366C328.47 260.936 328.942 259.893 329.305 258.759C329.668 257.623 329.923 256.394 330.23 254.589C331.574 246.696 329.75 238.352 324.733 229.482C323.378 227.086 322.737 225.926 321.967 224.879C321.198 223.834 320.298 222.901 318.426 220.963C313.921 216.297 312.802 215.189 311.858 214.515C311.416 214.198 310.346 213.378 309.482 212.704C309.054 212.37 308.604 212.02 308.219 211.73C307.833 211.44 307.516 211.211 307.352 211.118C307.016 210.927 306.151 210.336 305.373 209.803C304.319 209.081 302.091 207.877 299.778 206.735C297.466 205.593 295.075 204.515 293.697 204.046C286.235 201.503 277.368 199.929 268.335 199.551C259.992 199.202 254.19 198.036 247.462 195.38C243.113 193.664 236.679 190.011 233.035 187.154C232.386 186.646 231.551 186.037 231.164 185.767C230.638 185.4 228.732 183.836 226.669 182.087C224.608 180.34 222.386 178.405 221.218 177.286L195.806 168.173L196.053 194.787Z" fill="white" stroke="white" stroke-width="0.1"/>
<path d="M198.36 165.904C199.453 166.19 200.84 166.711 201.882 167.146C202.208 167.282 201.999 167.351 202.223 167.451C202.661 167.645 203.102 167.72 203.531 167.921C203.673 167.989 203.427 168.125 203.578 168.191C204.403 168.551 205.225 168.76 206.076 169.078C210.265 170.646 214.426 172.054 218.706 173.515C220.118 173.997 221.792 174.715 223.282 175.11C223.456 175.156 223.404 174.963 223.441 174.961C224.016 174.922 223.744 175.191 224.064 175.34C225.335 175.932 226.804 176.415 228.098 176.76C228.649 176.907 228.203 176.421 228.694 176.77C228.728 176.794 228.538 176.917 228.681 176.983C229.006 177.13 229.655 177.304 229.913 177.4C230.408 177.587 230.492 177.612 230.968 177.765C231.618 177.977 232.367 178.305 233.078 178.49C233.23 178.529 233.085 178.298 233.332 178.346C233.579 178.393 234.205 178.608 234.405 178.715C234.605 178.823 234.473 178.925 234.501 178.967C234.73 179.32 235.57 179.2 235.667 179.221C237.422 179.618 238.826 180.285 240.431 180.794C241.65 181.181 242.973 181.531 244.129 181.909C245.507 182.361 246.65 182.82 247.996 183.232C248.138 183.275 248.031 183.036 248.205 183.089C250.049 183.653 251.867 184.256 253.657 184.962C253.837 185.033 253.55 185.118 253.726 185.199C254.807 185.688 256.486 186.561 257.369 186.084C258.121 186.354 259.035 186.675 259.672 187.029C260.083 187.257 259.603 187.292 260.165 187.39C260.291 187.412 260.18 187.213 260.366 187.258C261.151 187.448 261.974 187.762 262.757 187.927C262.916 187.96 262.915 187.815 262.967 187.805C263.395 187.73 263.906 188.243 264.033 188.308C264.994 188.803 265.758 188.971 266.703 189.276C266.922 189.347 266.717 189.089 266.93 189.151C268.034 189.476 269.164 189.853 270.213 190.27C270.446 190.364 270.181 190.441 270.29 190.493C270.772 190.72 270.97 190.479 271.434 190.692C271.531 190.737 271.435 190.844 271.449 190.863C271.672 191.17 272.02 190.946 272.097 190.963C273.07 191.172 273.574 191.68 274.501 191.924C274.612 191.953 274.415 191.719 274.724 191.81C276.782 192.417 278.93 193.148 280.916 193.911C281.225 194.03 280.965 194.072 280.98 194.092C281.234 194.413 281.535 194.186 281.641 194.208C282.476 194.386 283.156 194.869 283.814 194.698C287.205 195.905 290.676 196.802 293.983 198.176C294.025 198.193 293.905 198.305 293.989 198.338C295.004 198.743 294.871 198.468 295.639 198.43C295.832 198.421 296.261 198.897 296.301 198.934C296.445 199.071 296.205 199.216 296.257 199.25C296.688 199.525 296.819 198.84 297.454 199.041C297.473 199.049 297.352 199.144 297.401 199.172C297.555 199.263 297.734 199.267 297.883 199.36C298.223 199.574 298.255 199.933 298.879 199.927C298.959 199.925 298.966 199.52 299.527 199.718C299.75 199.797 300.752 200.108 301.025 200.221C301.297 200.333 301.068 200.39 301.086 200.402C301.791 200.797 301.485 200.771 301.79 201.12C302.096 201.469 302.163 200.889 302.336 200.876C302.51 200.864 303.022 201.167 303.144 201.255C303.266 201.342 303.074 201.363 303.186 201.426C303.936 201.842 303.623 201.267 303.914 201.265C304.6 201.258 304.958 201.813 305.515 202.031C305.666 202.091 305.569 201.96 305.709 201.995C306.262 202.134 306.55 202.361 307.204 202.444C307.311 202.457 307.886 202.378 308.154 202.655C308.192 202.694 308.031 202.751 308.256 202.846C308.592 202.988 309.208 203.206 309.591 203.291C309.873 203.354 309.609 203.094 309.939 203.253C310.085 203.324 309.771 203.328 310.049 203.453C310.325 203.577 311.061 203.805 311.341 203.89C311.621 203.974 311.506 203.806 311.531 203.805C311.682 203.801 312.235 203.913 312.283 203.928C314.671 204.67 316.808 205.564 319.151 206.232C319.334 206.285 319.251 206.125 319.28 206.131C319.92 206.278 319.326 206.446 319.728 206.692C319.742 206.425 319.986 206.551 320.433 206.663C320.649 206.717 320.564 206.585 320.586 206.581C320.946 206.537 321.106 206.792 321.15 206.848C321.314 207.054 321.592 206.96 321.704 207.098C321.817 207.235 321.448 207.27 321.87 207.401C322.016 207.351 321.775 207.024 322.106 207.088C323.357 207.331 325.554 208.223 326.519 208.547C327.482 208.871 327.8 208.955 328.355 209.164C329.357 209.541 329.035 209.26 329.691 209.386C330.349 209.514 329.916 209.814 329.98 209.928C330.043 210.042 330.168 209.984 330.265 210.066C330.361 210.148 330.102 210.131 330.358 210.23C330.615 210.33 331.377 210.403 331.498 210.344C331.753 210.218 331.493 209.919 332.163 210.208C332.201 210.224 332.039 210.287 332.188 210.345C333.373 210.807 334.629 211.209 335.816 211.659C335.979 211.721 335.795 211.786 335.89 211.824C336.875 212.212 336.574 211.91 337.192 211.875C336.981 212.114 337.232 212.38 337.997 212.622C338.457 212.767 338.415 212.622 338.739 212.63C338.837 212.633 339.136 212.818 339.213 212.78C339.465 212.657 339.224 212.354 339.986 212.686C340.019 212.701 339.877 212.766 339.995 212.81C340.755 213.094 340.907 212.932 341.749 213.174C342.409 213.364 343.536 213.848 344.275 214.102C344.165 214.397 344.891 214.549 345.241 214.435C345.722 214.596 346.248 214.75 346.706 214.926C346.864 214.986 346.732 215.038 346.749 215.054C347.015 215.296 347.287 215.165 347.394 215.191C348.548 215.474 349.424 215.912 350.548 216.11C350.588 216.117 350.713 215.938 350.956 216.175C350.971 216.19 350.586 216.168 351.092 216.336C351.598 216.504 352.522 216.912 353.256 217.043C353.434 217.075 353.915 217.053 354.222 217.287C354.263 217.318 354.195 217.358 354.252 217.41C354.436 217.577 354.616 217.418 354.816 217.664C355.017 217.911 355.505 218.199 356.253 218.309C356.276 218.312 356.493 218.212 356.716 218.285C357.072 218.401 357.569 218.593 357.942 218.709C358.121 218.765 358.036 218.634 358.068 218.642C359.285 218.968 360.113 219.322 361.388 219.762C361.621 219.843 362.338 219.932 362.763 220.174C363.231 220.439 362.575 220.725 363.761 220.978C364.24 221.08 365.004 220.705 365.748 221.257C367.39 221.695 368.843 222.31 370.498 222.721C370.572 222.74 370.85 222.663 371.021 222.719C371.275 222.803 371.393 222.916 371.574 222.978C372.33 223.239 373.046 223.4 373.778 223.641C374.056 223.732 373.937 223.772 374.268 223.88C374.6 223.989 374.851 223.966 375.288 224.153C375.617 224.294 375.899 224.588 376.345 224.751C376.42 224.573 376.729 224.674 377.296 224.799C377.405 224.823 377.311 224.724 377.364 224.732C377.578 224.764 377.751 224.876 377.956 224.902C378.006 224.908 378.027 224.847 378.069 224.848C378.426 224.861 378.922 225.171 379.007 225.224C379.334 225.428 379.525 225.4 379.786 225.522C380.047 225.643 379.626 225.56 379.937 225.682C380.583 225.934 381.433 226.19 382.102 226.403C382.369 226.487 382.212 226.35 382.25 226.361C382.809 226.514 383.341 226.774 383.697 226.713C383.952 227.24 384.043 226.779 384.807 227.109C384.867 227.135 384.886 227.35 384.638 227.304C384.39 227.257 384.047 227.084 383.702 227.024C383.62 227.009 383.113 227.05 383.049 227.042C382.541 226.978 382.564 226.667 382.543 226.643C382.309 226.38 381.698 226.404 381.549 226.373C380.867 226.229 380.318 226.012 379.75 225.884C379.378 225.8 379.281 225.984 378.999 225.89C378.059 225.578 377.816 225.198 376.849 225.161C376.642 225.152 376.763 225.429 376.132 225.046C376.092 225.022 375.633 224.706 375.308 224.715C375.267 224.716 375.248 224.78 375.198 224.771C374.861 224.705 374.659 224.586 374.296 224.5C373.933 224.415 373.494 224.32 373.096 224.172C372.855 224.084 372.58 223.864 372.472 223.798C372.169 223.609 371.77 223.641 371.599 223.472C371.426 223.302 371.879 223.268 371.36 223.03C371.286 223.196 371.184 223.358 371.098 223.521C369.913 223.148 368.763 222.73 367.571 222.368C367.423 222.324 367.544 222.465 367.385 222.42C366.712 222.229 366.151 221.98 365.45 221.793C364.907 221.649 364.287 221.57 363.719 221.423C363.442 221.11 362.588 220.923 361.99 220.717C361.781 220.645 361.812 220.593 361.668 220.528C361.122 220.284 361.329 220.553 361.164 220.534C360.456 220.454 360.533 220.012 359.743 219.777C359.701 219.764 359.12 219.834 359.045 219.827C358.57 219.782 358.996 219.725 358.722 219.621C358.222 219.432 357.886 219.267 357.267 219.149C357.086 219.115 356.622 219.131 356.319 218.913C356.279 218.885 356.328 218.815 356.293 218.8C355.668 218.523 355.574 218.76 355.177 218.729C354.78 218.697 354.26 218.351 354.159 218.266C353.894 218.045 354.41 218.284 354.43 218.277C354.671 218.19 354.245 218.085 353.93 217.973C353.96 217.717 353.509 217.592 353.603 217.858C353.614 217.888 353.869 217.942 353.93 217.973C353.575 218.123 353.074 218.003 352.603 217.611C352.382 217.428 352.66 217.38 351.876 217.184C351.52 217.095 351.602 217.307 351.279 217.257C350.541 217.144 349.674 216.701 348.94 216.5C348.673 216.427 348.9 216.601 348.717 216.555C348.231 216.432 347.831 216.23 347.339 216.118C347.294 216.108 347.369 216.24 347.219 216.195C346.082 215.856 345.116 215.487 343.934 215.119C343.362 214.941 342.323 214.681 341.734 214.487C340.713 214.15 339.499 213.607 338.611 213.372C338.031 213.219 338.124 213.363 337.856 213.359C337.339 213.353 336.581 212.844 336.481 212.77C336.478 212.767 336.977 212.895 336.732 212.759C336.615 212.598 336.486 212.771 336.481 212.77C336.414 212.722 335.439 212.392 335.238 212.352C335.128 212.331 335.155 212.451 335.099 212.438C333.756 212.122 332.43 211.743 331.112 211.283C331.089 211.273 331.161 211.168 331.107 211.147C330.352 210.856 329.813 210.846 329.149 210.735C328.486 210.625 327.989 210.441 327.677 210.121C327.189 209.998 326.528 209.694 326.149 209.516C325.77 209.338 325.641 209.554 325.605 209.548C324.47 209.361 323.883 209.032 322.761 208.662C322.228 208.486 321.152 208.191 320.563 208.038C320.097 207.918 319.838 207.776 319.403 207.681C319.345 207.668 319.368 207.794 319.35 207.793C318.837 207.776 319.147 207.583 319.064 207.505C318.764 207.225 318.575 207.065 317.945 206.958C317.8 206.933 317.273 207.191 317.011 207.136C316.672 207.062 316.84 206.963 316.483 206.89C316.453 206.883 316.432 206.97 316.219 206.901C315.232 206.579 314.166 206.196 313.133 205.887C312.992 205.845 313.129 206.038 312.924 205.979C311.964 205.702 310.919 205.376 310.009 205.024C309.786 204.937 309.96 204.884 309.919 204.839C309.67 204.569 309.157 204.692 309.084 204.675C307.341 204.275 306.112 203.639 304.341 203.217C304.244 203.194 303.428 203.254 303.18 202.911C303.163 202.888 302.92 202.54 302.583 202.623C302.562 202.628 302.721 202.818 302.376 202.698C302.031 202.577 301.442 202.491 301.007 202.201C300.869 202.11 300.589 201.747 300.073 201.808C300.039 201.813 299.196 202.054 299.045 201.662C299.021 201.598 299.168 201.278 298.574 201.282C298.46 201.283 298.624 201.415 298.337 201.378C297.897 201.322 297.373 201.062 296.813 201.054C296.715 201.053 296.262 201.166 296.012 200.898C295.972 200.856 296.099 200.771 295.941 200.709C295.194 200.412 294.367 200.241 293.613 199.923C293.346 199.81 293.545 199.669 293.273 199.53C293.001 199.392 292.438 199.165 292.11 199.157C291.783 199.149 292.018 199.547 291.56 199.432C289.567 198.935 287.68 198.163 285.732 197.534C285.443 197.441 285.649 197.624 285.221 197.495C283.641 197.018 280.884 196.289 279.591 195.629C278.555 195.1 279.98 195.38 279.168 195.043C278.775 194.88 278.223 195.112 278.121 195.094C277.131 194.918 276.52 194.551 275.646 194.337C275.466 194.293 275.592 194.497 275.439 194.458C274.915 194.326 274.395 194.092 273.899 193.953C273.676 193.891 273.68 194.02 273.48 193.948C273 193.779 272.585 193.598 272.146 193.343C272.106 193.32 272.443 193.264 272.085 193.148C271.505 192.96 270.817 192.628 270.112 192.534C269.903 192.507 269.81 192.774 269.441 192.456C269.364 192.39 269.581 192.1 268.995 192.227C268.897 192.248 267.941 192.371 267.608 192C267.52 191.902 267.328 191.549 267.076 191.517C267.041 191.514 267.125 191.701 266.922 191.654C266.209 191.487 265.483 191.246 264.751 191.072C264.556 191.026 264.793 191.267 264.503 191.193C263.706 190.991 262.738 190.651 261.986 190.367C261.708 190.262 261.944 190.194 261.928 190.173C261.669 189.844 261.376 190.091 261.261 190.075C260.543 189.973 260.069 189.668 259.426 189.513C259.249 189.47 259.326 189.655 259.287 189.658C258.888 189.677 259.239 189.493 259.021 189.394C258.411 189.115 257.697 188.909 257.048 188.73C256.809 188.665 257.02 188.919 256.807 188.859C255.541 188.503 254.241 188.087 253.046 187.614C252.821 187.524 253.009 187.433 252.97 187.388C252.707 187.069 252.128 187.215 252.008 187.209C251.459 187.182 251.299 187.001 250.843 186.885C248.615 186.324 245.933 185.414 243.879 184.726C241.202 183.832 239.153 183.052 236.57 182.295C236.406 182.247 236.51 182.49 236.368 182.451C234.534 181.938 232.767 181.312 230.926 180.809C230.775 180.767 230.932 181.019 230.688 180.959C230.187 180.836 229.566 180.635 229.086 180.423C228.853 180.319 229.229 180.259 228.992 180.158C228.442 179.923 227.836 179.722 227.242 179.572C226.989 179.509 227.304 179.817 226.98 179.72C224.77 179.063 222.595 178.435 220.449 177.496C220.302 177.431 220.294 176.989 219.946 176.965C219.886 177.069 219.846 177.201 219.798 177.317C216.571 176.396 213.441 175.28 210.232 174.267C210.097 174.225 210.262 174.517 210 174.436C208.481 173.966 206.986 173.576 205.502 172.876C205.354 172.807 205.557 172.437 205.084 172.356C205.001 172.343 204.3 172.184 204.096 172.215C204.068 172.221 204.135 172.444 203.912 172.381C202.622 172.015 201.292 171.561 200.049 171.052C199.848 170.97 200.131 170.838 199.989 170.778C198.979 170.349 197.797 170.152 196.858 169.661C196.23 169.331 196.587 169.059 196.341 168.605C196.306 168.541 195.896 168.404 195.937 168.198C196.041 167.677 196.414 167.188 196.501 166.626C196.516 166.532 196.167 166.48 196.198 166.381C196.198 166.381 196.198 166.381 196.198 166.381C196.208 166.351 196.25 166.318 196.344 166.278C196.373 166.267 196.802 166.302 196.93 166.239C197.019 166.195 196.96 165.952 197.126 165.913C197.292 165.875 197.392 166.094 197.655 166.071C197.918 166.046 197.888 165.782 198.36 165.904ZM324.443 208.713C324.112 208.486 323.927 208.884 324.355 208.908C324.376 208.909 324.46 208.725 324.443 208.713ZM368.844 222.497C368.408 222.209 368.016 222.31 368.321 222.522C368.626 222.733 368.977 222.584 368.844 222.497ZM373.847 223.952C373.32 223.672 373.097 224.071 373.725 224.172C373.761 224.178 373.878 223.968 373.847 223.952ZM198.013 169.021C198.011 169.01 197.718 168.908 197.708 168.915C197.479 169.091 198.066 169.294 198.013 169.021ZM378.812 225.394C378.655 225.284 378.131 225.19 378.327 225.327C378.484 225.437 379.009 225.531 378.812 225.394ZM305.46 202.26C305.457 202.251 305.246 202.178 305.238 202.218C305.213 202.348 305.52 202.405 305.46 202.26ZM387.196 228.02C385.962 227.618 385.313 227.06 386.649 227.523C386.891 227.607 386.091 227.458 386.393 227.585C386.945 227.816 387.385 227.737 387.931 228.026C388.03 228.079 387.267 228.043 387.194 228.02C387.195 228.02 387.196 228.02 387.196 228.02ZM324.388 208.149C324.383 208.142 324.09 208.044 324.082 208.047C323.881 208.129 324.47 208.325 324.388 208.149ZM293.154 198.06C293.142 198.042 292.464 197.813 292.438 197.819C292.002 197.961 293.374 198.422 293.154 198.06ZM344.284 214.114C344.642 214.098 345.03 214.206 345.24 214.434C344.923 214.325 344.603 214.223 344.284 214.114Z" fill="white"/>
<path d="M222.353 174.949C223.956 174.73 226.889 174.47 229.581 174.269C232.278 174.067 234.739 173.922 235.381 173.934C235.852 173.943 236.886 173.941 237.709 173.911C242.337 173.742 249.689 174.569 254.217 175.736C261.221 177.542 266.6 180.009 273.555 184.63C281.086 189.634 289.184 193.573 296.715 195.902C298.105 196.332 300.673 196.866 303.215 197.301C305.757 197.736 308.268 198.072 309.545 198.107C310.487 198.133 311.536 198.163 311.92 198.206C312.107 198.227 312.498 198.229 312.981 198.221C313.462 198.213 314.032 198.194 314.575 198.176C315.67 198.139 317.017 198.104 317.562 198.108C318.721 198.117 320.278 197.877 326.666 196.751C329.319 196.283 330.594 196.057 331.832 195.664C333.07 195.27 334.271 194.708 336.775 193.567C346.048 189.34 352.427 183.66 355.98 176.485C356.792 174.845 357.309 173.701 357.682 172.569C358.055 171.437 358.286 170.316 358.526 168.723C359.304 163.559 359.214 158.521 358.192 153.315C357.862 151.638 357.093 149.128 356.21 146.686C355.327 144.243 354.332 141.872 353.552 140.474C349.756 133.667 345.052 128.292 338.27 124.856C337.227 124.328 336.315 123.813 335.65 123.388C335.318 123.176 335.045 122.985 334.85 122.827C334.752 122.747 334.672 122.674 334.613 122.611C334.555 122.548 334.512 122.49 334.495 122.438L334.473 122.369C334.456 122.316 334.456 122.244 334.466 122.159C334.477 122.073 334.498 121.968 334.531 121.846C334.596 121.602 334.704 121.288 334.849 120.921C335.137 120.186 335.572 119.234 336.105 118.193C339.573 111.425 340.822 104.115 339.892 96.3791C339.701 94.7903 339.113 92.2872 338.392 89.7919C337.67 87.2969 336.817 84.8138 336.098 83.2641C333.865 78.451 330.978 74.3234 327.313 70.6023C326.183 69.4545 325.337 68.6833 324.37 67.9874C323.403 67.2912 322.312 66.6687 320.691 65.819C313.599 62.1021 305.099 61.258 295.113 63.2886C292.416 63.8369 291.114 64.0875 289.881 64.4965C288.649 64.9054 287.484 65.4725 285.062 66.6538C279.233 69.4971 277.833 70.2189 276.9 70.9077C276.462 71.2309 275.351 71.9949 274.444 72.6083C273.994 72.9125 273.522 73.232 273.128 73.5084C272.732 73.7856 272.416 74.0171 272.277 74.144C271.992 74.405 271.162 75.0449 270.415 75.6199C269.403 76.3989 267.569 78.1462 265.768 79.9925C263.967 81.8387 262.203 83.7797 261.331 84.9448C256.607 91.2561 252.37 99.203 249.219 107.677C246.309 115.504 243.408 120.661 238.803 126.239C235.826 129.845 230.364 134.836 226.521 137.419C225.837 137.878 224.999 138.485 224.623 138.769C224.112 139.156 222.036 140.485 219.735 141.907C217.437 143.327 214.91 144.843 213.484 145.608L196.964 166.96L222.353 174.949Z" fill="white" stroke="white" stroke-width="0.1"/>
<path d="M195.596 163.83C196.205 162.878 197.13 161.721 197.865 160.864C198.096 160.595 198.097 160.816 198.261 160.633C198.581 160.277 198.788 159.881 199.113 159.535C199.221 159.42 199.274 159.697 199.383 159.574C199.981 158.9 200.434 158.183 200.999 157.473C203.785 153.972 206.41 150.451 209.122 146.831C210.017 145.638 211.216 144.267 212.053 142.972C212.15 142.821 211.951 142.811 211.96 142.775C212.101 142.216 212.272 142.558 212.513 142.299C213.469 141.273 214.382 140.025 215.11 138.902C215.42 138.423 214.82 138.697 215.304 138.338C215.338 138.313 215.396 138.532 215.502 138.416C215.743 138.153 216.109 137.589 216.28 137.374C216.611 136.96 216.66 136.888 216.953 136.483C217.355 135.93 217.899 135.319 218.295 134.7C218.379 134.568 218.114 134.634 218.236 134.414C218.357 134.193 218.755 133.665 218.919 133.508C219.083 133.351 219.14 133.508 219.188 133.494C219.595 133.385 219.74 132.549 219.79 132.464C220.71 130.917 221.777 129.788 222.758 128.419C223.503 127.379 224.245 126.23 224.962 125.247C225.816 124.076 226.606 123.13 227.414 121.977C227.5 121.856 227.238 121.883 227.343 121.735C228.449 120.155 229.584 118.613 230.809 117.128C230.932 116.979 230.924 117.279 231.055 117.136C231.855 116.259 233.204 114.932 233.024 113.945C233.512 113.313 234.1 112.543 234.634 112.047C234.977 111.726 234.862 112.193 235.129 111.689C235.19 111.576 234.966 111.62 235.066 111.457C235.489 110.769 236.042 110.084 236.441 109.39C236.522 109.249 236.383 109.205 236.39 109.153C236.451 108.722 237.097 108.394 237.198 108.294C237.965 107.533 238.361 106.859 238.943 106.054C239.078 105.867 238.77 105.983 238.895 105.799C239.544 104.85 240.252 103.891 240.974 103.023C241.135 102.83 241.125 103.106 241.209 103.019C241.574 102.631 241.406 102.368 241.752 101.993C241.825 101.913 241.896 102.038 241.919 102.031C242.28 101.914 242.174 101.513 242.214 101.446C242.714 100.584 243.353 100.262 243.871 99.4555C243.933 99.3589 243.65 99.4741 243.832 99.2086C245.045 97.4388 246.404 95.6214 247.744 93.9685C247.952 93.7113 247.912 93.9721 247.936 93.9638C248.32 93.8214 248.197 93.4648 248.25 93.3707C248.677 92.6321 249.346 92.1348 249.387 91.4556C251.583 88.6036 253.509 85.58 255.838 82.8593C255.867 82.8245 255.936 82.9734 255.994 82.9036C256.692 82.0633 256.39 82.105 256.591 81.3629C256.642 81.1762 257.228 80.9152 257.275 80.8891C257.45 80.7949 257.513 81.067 257.562 81.0283C257.956 80.7034 257.345 80.3669 257.733 79.8259C257.746 79.8097 257.799 79.9545 257.842 79.9164C257.975 79.7982 258.034 79.629 258.168 79.5162C258.477 79.2587 258.829 79.3395 259.016 78.7436C259.039 78.6679 258.656 78.5356 259.017 78.0632C259.161 77.8751 259.767 77.0187 259.958 76.7942C260.149 76.57 260.133 76.8058 260.149 76.7919C260.743 76.2434 260.624 76.5268 261.05 76.3443C261.476 76.1609 260.945 75.9178 260.987 75.7492C261.029 75.5806 261.476 75.1866 261.597 75.0976C261.717 75.0086 261.677 75.1984 261.772 75.1106C262.4 74.5263 261.756 74.6465 261.844 74.369C262.05 73.7148 262.688 73.5455 263.068 73.0828C263.171 72.9577 263.017 73.0098 263.093 72.8875C263.397 72.4041 263.702 72.2004 263.982 71.6038C264.028 71.5062 264.13 70.9357 264.476 70.7655C264.526 70.7416 264.53 70.9124 264.69 70.7281C264.929 70.4528 265.327 69.9335 265.526 69.5963C265.672 69.3473 265.344 69.5183 265.597 69.2537C265.71 69.1362 265.616 69.4361 265.821 69.2104C266.025 68.986 266.468 68.3568 266.636 68.1164C266.803 67.8764 266.607 67.9335 266.614 67.9093C266.657 67.7646 266.934 67.273 266.963 67.2328C268.407 65.1904 269.917 63.4343 271.277 61.413C271.384 61.2545 271.206 61.2839 271.221 61.259C271.558 60.6959 271.534 61.3124 271.892 61.0061C271.643 60.9098 271.838 60.7174 272.083 60.326C272.201 60.1373 272.049 60.1779 272.053 60.1554C272.121 59.7998 272.414 59.7267 272.48 59.7017C272.726 59.6093 272.723 59.3157 272.889 59.2517C273.054 59.1872 272.973 59.5487 273.228 59.1876C273.226 59.0336 272.841 59.162 273.004 58.8665C273.622 57.7521 275.149 55.9381 275.755 55.1203C276.362 54.3047 276.539 54.0282 276.909 53.565C277.578 52.7282 277.211 52.948 277.534 52.363C277.858 51.7765 278.009 52.2816 278.138 52.2557C278.265 52.2311 278.25 52.0941 278.358 52.0274C278.465 51.9609 278.369 52.2018 278.543 51.9892C278.716 51.7763 279.022 51.0735 279.003 50.9406C278.962 50.6593 278.597 50.8143 279.078 50.2664C279.106 50.235 279.116 50.4079 279.217 50.2843C280.023 49.3001 280.793 48.23 281.588 47.2402C281.697 47.1041 281.703 47.2993 281.767 47.2209C282.441 46.404 282.061 46.5965 282.219 45.9983C282.381 46.2733 282.712 46.116 283.177 45.4634C283.458 45.0713 283.307 45.0656 283.415 44.7602C283.448 44.6685 283.716 44.4409 283.704 44.3563C283.665 44.0784 283.302 44.2143 283.853 43.592C283.877 43.5649 283.896 43.7199 283.974 43.6217C284.479 42.9867 284.372 42.7916 284.862 42.0659C285.247 41.4971 286.055 40.5746 286.526 39.9501C286.772 40.1456 287.141 39.5025 287.14 39.1342C287.442 38.7268 287.751 38.2742 288.06 37.8925C288.166 37.7611 288.175 37.9031 288.195 37.8914C288.508 37.7136 288.467 37.4142 288.524 37.3205C289.15 36.3098 289.838 35.6127 290.374 34.6044C290.393 34.5685 290.26 34.3943 290.561 34.2367C290.581 34.2268 290.441 34.5862 290.756 34.1571C291.072 33.7281 291.746 32.9749 292.098 32.3177C292.183 32.1586 292.311 31.6941 292.628 31.4738C292.67 31.4446 292.687 31.5217 292.754 31.4837C292.97 31.36 292.874 31.1402 293.171 31.0255C293.467 30.9108 293.892 30.5358 294.227 29.8587C294.238 29.8372 294.209 29.5999 294.348 29.4104C294.568 29.108 294.904 28.6945 295.13 28.3755C295.238 28.2227 295.088 28.2628 295.106 28.2353C295.792 27.1788 296.384 26.5006 297.196 25.4242C297.345 25.2269 297.651 24.5727 298.013 24.2431C298.41 23.8807 298.479 24.593 299.086 23.5426C299.331 23.1187 299.211 22.2759 299.966 21.7389C300.89 20.3128 301.924 19.1215 302.826 17.6741C302.866 17.609 302.879 17.3208 302.985 17.1756C303.144 16.9601 303.288 16.8831 303.403 16.7305C303.884 16.0921 304.259 15.4604 304.714 14.8384C304.887 14.6022 304.888 14.7284 305.094 14.4465C305.299 14.1647 305.355 13.9191 305.668 13.5612C305.904 13.2912 306.271 13.1143 306.563 12.7409C306.417 12.6144 306.609 12.3515 306.903 11.851C306.96 11.7548 306.836 11.8132 306.86 11.7657C306.957 11.5716 307.117 11.4423 307.204 11.2552C307.226 11.2098 307.174 11.1702 307.189 11.1309C307.311 10.7959 307.759 10.4197 307.836 10.3551C308.13 10.1073 308.163 9.91688 308.36 9.70594C308.556 9.49528 308.347 9.87008 308.559 9.61168C308.998 9.07588 309.504 8.34623 309.913 7.77597C310.076 7.5482 309.897 7.65528 309.919 7.62155C310.238 7.13771 310.649 6.71177 310.701 6.35456C311.281 6.27485 310.87 6.04618 311.421 5.42177C311.464 5.3727 311.675 5.42085 311.554 5.64202C311.433 5.8632 311.162 6.13625 310.998 6.44617C310.959 6.5194 310.841 7.01369 310.813 7.07295C310.596 7.53638 310.307 7.41827 310.278 7.43026C309.956 7.57178 309.79 8.16048 309.714 8.29264C309.366 8.89645 308.99 9.35199 308.693 9.85273C308.498 10.1801 308.644 10.329 308.467 10.5688C307.879 11.3662 307.443 11.48 307.109 12.3879C307.037 12.5825 307.338 12.5526 306.778 13.0343C306.743 13.0646 306.301 13.4034 306.208 13.7154C306.197 13.7546 306.252 13.7926 306.227 13.8375C306.06 14.1378 305.885 14.2926 305.692 14.6115C305.498 14.9304 305.272 15.3185 305.009 15.6521C304.85 15.8533 304.557 16.0475 304.46 16.1292C304.187 16.3592 304.094 16.7482 303.88 16.8594C303.665 16.9715 303.773 16.5296 303.386 16.9499C303.521 17.0715 303.644 17.2182 303.772 17.3511C303.051 18.3623 302.298 19.3264 301.586 20.3489C301.498 20.4758 301.67 20.4045 301.577 20.5421C301.188 21.1225 300.778 21.5797 300.383 22.1884C300.078 22.6599 299.812 23.2251 299.497 23.7207C299.113 23.8873 298.671 24.6412 298.291 25.1464C298.157 25.3233 298.118 25.277 298.011 25.3945C297.61 25.8384 297.93 25.7246 297.862 25.8756C297.567 26.5237 297.17 26.3141 296.702 26.9929C296.677 27.0286 296.564 27.6034 296.534 27.6723C296.345 28.1106 296.422 27.6869 296.239 27.9154C295.905 28.3325 295.643 28.6016 295.34 29.1542C295.252 29.3154 295.123 29.7616 294.823 29.9829C294.783 30.012 294.732 29.944 294.707 29.9719C294.25 30.4808 294.447 30.6434 294.294 31.0112C294.142 31.3791 293.652 31.7667 293.54 31.8365C293.247 32.0204 293.635 31.6037 293.634 31.582C293.625 31.3264 293.394 31.699 293.191 31.9642C292.956 31.8568 292.698 32.2467 292.98 32.2398C293.011 32.2384 293.142 32.0123 293.191 31.9642C293.223 32.3479 292.954 32.787 292.436 33.1144C292.193 33.2675 292.234 32.9882 291.806 33.6736C291.611 33.9846 291.837 33.972 291.69 34.2639C291.354 34.9311 290.665 35.6181 290.247 36.2546C290.096 36.4858 290.331 36.3233 290.23 36.4833C289.963 36.9082 289.648 37.2259 289.389 37.6592C289.366 37.6985 289.515 37.668 289.426 37.7967C288.752 38.7733 288.102 39.5783 287.387 40.589C287.041 41.0774 286.473 41.9861 286.106 42.4858C285.471 43.3524 284.579 44.3398 284.081 45.1118C283.756 45.6153 283.922 45.5721 283.835 45.8255C283.67 46.3151 282.951 46.879 282.849 46.9514C282.846 46.9535 283.122 46.5175 282.917 46.7088C282.727 46.7701 282.852 46.9463 282.849 46.9514C282.783 46.9994 282.169 47.8252 282.069 48.0045C282.014 48.102 282.137 48.1131 282.107 48.1628C281.392 49.3427 280.621 50.4862 279.776 51.5975C279.76 51.6163 279.682 51.5153 279.646 51.5603C279.136 52.1889 278.96 52.6985 278.649 53.2954C278.339 53.8922 278.011 54.3073 277.61 54.5056C277.342 54.932 276.849 55.4664 276.563 55.7717C276.276 56.0771 276.442 56.2666 276.425 56.2993C275.896 57.3205 275.402 57.7774 274.703 58.7301C274.371 59.1829 273.759 60.1148 273.431 60.628C273.172 61.034 272.957 61.2363 272.733 61.6204C272.703 61.6724 272.83 61.6885 272.823 61.7059C272.648 62.1888 272.56 61.834 272.461 61.8887C272.101 62.0869 271.891 62.2176 271.595 62.784C271.526 62.9144 271.608 63.4951 271.475 63.7267C271.3 64.0272 271.258 63.8365 271.078 64.1531C271.062 64.1802 271.139 64.2267 271.007 64.4074C270.396 65.2468 269.702 66.1421 269.089 67.0296C269.005 67.1507 269.231 67.0798 269.112 67.2562C268.552 68.0837 267.918 68.977 267.303 69.7335C267.151 69.9195 267.154 69.737 267.099 69.7618C266.765 69.9157 266.723 70.4417 266.685 70.5059C265.766 72.0394 264.781 73.012 263.832 74.5661C263.781 74.6508 263.585 75.4459 263.183 75.5759C263.156 75.5852 262.75 75.7082 262.724 76.0549C262.723 76.0765 262.953 75.9833 262.732 76.2743C262.51 76.5651 262.247 77.0988 261.836 77.4231C261.707 77.526 261.276 77.68 261.174 78.1899C261.168 78.2235 261.137 79.0998 260.718 79.1222C260.649 79.1254 260.39 78.8862 260.21 79.453C260.176 79.5616 260.353 79.4464 260.229 79.7078C260.039 80.1086 259.63 80.527 259.45 81.0573C259.418 81.1499 259.385 81.6156 259.053 81.7712C259.001 81.7956 258.96 81.6491 258.852 81.7795C258.339 82.399 257.921 83.1326 257.385 83.7511C257.195 83.9702 257.122 83.7372 256.906 83.9528C256.691 84.1686 256.301 84.6346 256.192 84.9436C256.083 85.2527 256.534 85.152 256.284 85.5525C255.194 87.2939 253.878 88.8496 252.677 90.5083C252.5 90.7544 252.738 90.6149 252.482 90.9824C251.541 92.3373 249.995 94.7336 248.968 95.7598C248.145 96.5815 248.851 95.3125 248.28 95.9815C248.004 96.3042 248.054 96.9017 248.005 96.9923C247.532 97.88 246.994 98.3476 246.52 99.1125C246.422 99.2705 246.656 99.2134 246.571 99.3469C246.284 99.804 245.901 100.226 245.615 100.655C245.487 100.848 245.611 100.884 245.481 101.052C245.172 101.457 244.872 101.795 244.493 102.134C244.459 102.165 244.51 101.827 244.289 102.132C243.931 102.625 243.403 103.177 243.095 103.819C243.005 104.009 243.23 104.18 242.814 104.432C242.727 104.485 242.519 104.19 242.458 104.786C242.448 104.886 242.269 105.833 241.813 106.035C241.693 106.089 241.298 106.162 241.19 106.392C241.176 106.424 241.38 106.402 241.273 106.58C240.894 107.207 240.44 107.823 240.048 108.465C239.944 108.637 240.246 108.486 240.086 108.739C239.648 109.434 239.026 110.25 238.523 110.878C238.338 111.109 238.346 110.863 238.321 110.872C237.928 111.017 238.072 111.372 238.022 111.477C237.703 112.127 237.266 112.485 236.92 113.047C236.824 113.203 237.024 113.187 237.015 113.225C236.909 113.61 236.843 113.22 236.682 113.396C236.228 113.891 235.811 114.505 235.44 115.068C235.304 115.275 235.612 115.152 235.488 115.337C234.759 116.43 233.961 117.539 233.142 118.529C232.987 118.715 232.959 118.509 232.904 118.531C232.519 118.683 232.479 119.278 232.436 119.391C232.241 119.905 232.02 120.001 231.769 120.399C230.547 122.344 228.851 124.614 227.563 126.355C225.886 128.624 224.51 130.332 222.992 132.555C222.896 132.696 223.159 132.672 223.078 132.795C222.024 134.381 220.882 135.868 219.835 137.463C219.748 137.594 220.037 137.522 219.904 137.736C219.632 138.175 219.249 138.703 218.899 139.094C218.728 139.284 218.787 138.907 218.618 139.101C218.225 139.552 217.846 140.066 217.52 140.585C217.382 140.806 217.772 140.602 217.58 140.88C216.272 142.778 215.003 144.653 213.446 146.404C213.34 146.524 212.916 146.394 212.786 146.718C212.867 146.807 212.98 146.886 213.075 146.968C211.202 149.752 209.173 152.384 207.219 155.123C207.136 155.238 207.465 155.172 207.307 155.396C206.391 156.695 205.558 157.997 204.433 159.192C204.322 159.311 204.033 159.003 203.811 159.428C203.772 159.503 203.404 160.121 203.371 160.325C203.368 160.353 203.6 160.358 203.472 160.551C202.725 161.665 201.882 162.789 201.014 163.814C200.874 163.979 200.836 163.67 200.735 163.787C200.015 164.614 199.462 165.678 198.705 166.419C198.197 166.914 198.049 166.491 197.541 166.585C197.469 166.598 197.213 166.946 197.029 166.842C196.565 166.583 196.216 166.077 195.708 165.82C195.624 165.777 195.467 166.093 195.381 166.033C195.381 166.033 195.381 166.033 195.381 166.033C195.356 166.015 195.338 165.964 195.329 165.862C195.327 165.831 195.493 165.434 195.472 165.293C195.459 165.195 195.209 165.176 195.224 165.006C195.238 164.836 195.478 164.809 195.537 164.552C195.594 164.294 195.334 164.24 195.596 163.83ZM275.272 57.1465C274.953 57.3911 275.275 57.69 275.43 57.2902C275.437 57.2705 275.288 57.1337 275.272 57.1465ZM302.101 19.1777C301.693 19.5037 301.668 19.9075 301.963 19.683C302.258 19.4582 302.225 19.078 302.101 19.1777ZM305.031 14.8691C304.602 15.2841 304.913 15.6194 305.203 15.0535C305.22 15.0207 305.056 14.8448 305.031 14.8691ZM198.453 165.122C198.442 165.121 198.254 165.369 198.258 165.38C198.354 165.652 198.729 165.156 198.453 165.122ZM307.937 10.5926C307.784 10.7083 307.533 11.1772 307.724 11.0337C307.877 10.918 308.128 10.4484 307.937 10.5926ZM263.269 73.2059C263.259 73.2067 263.125 73.3844 263.16 73.4043C263.275 73.4677 263.425 73.1937 263.269 73.2059ZM313.025 3.43032C312.262 4.47995 311.531 4.92552 312.384 3.79771C312.538 3.59334 312.149 4.30817 312.363 4.06045C312.754 3.60659 312.815 3.16411 313.259 2.73337C313.339 2.65531 313.069 3.37069 313.024 3.43246C313.025 3.43173 313.025 3.43101 313.025 3.43032ZM274.719 57.024C274.709 57.0269 274.526 57.2749 274.526 57.2842C274.542 57.5005 274.911 57.0008 274.719 57.024ZM255.472 83.6116C255.45 83.6171 255.023 84.1916 255.02 84.2184C255.021 84.6769 255.883 83.5148 255.472 83.6116ZM286.54 39.9449C286.635 39.5995 286.858 39.2642 287.139 39.1354C286.938 39.4027 286.741 39.6758 286.54 39.9449Z" fill="white"/>
<rect x="190" y="161" width="10" height="10" fill="white"/>
</svg>
